G04*
G04 #@! TF.GenerationSoftware,Altium Limited,Altium Designer,25.8.1 (18)*
G04*
G04 Layer_Color=65535*
%FSLAX25Y25*%
%MOIN*%
G70*
G04*
G04 #@! TF.SameCoordinates,67B45281-70B3-422D-B4EF-D01C400089C5*
G04*
G04*
G04 #@! TF.FilePolarity,Positive*
G04*
G01*
G75*
%ADD10C,0.00984*%
%ADD11C,0.00600*%
%ADD12C,0.00500*%
%ADD13C,0.00787*%
%ADD14R,0.05400X0.01700*%
D10*
X29804Y90579D02*
G03*
X29804Y90579I-492J0D01*
G01*
Y35079D02*
G03*
X29804Y35079I-492J0D01*
G01*
X161358Y16142D02*
G03*
X161358Y16142I-492J0D01*
G01*
Y66142D02*
G03*
X161358Y66142I-492J0D01*
G01*
X80492Y87500D02*
G03*
X80492Y87500I-492J0D01*
G01*
X66189Y41992D02*
G03*
X66189Y41992I-492J0D01*
G01*
D11*
X56100Y16700D02*
X60700D01*
X61200Y17200D01*
Y25300D01*
X56100D02*
X61200D01*
X56100Y16700D02*
Y25300D01*
X124419Y10850D02*
Y12350D01*
X224400Y10850D02*
Y12350D01*
X174419Y10850D02*
Y12350D01*
X74419Y10850D02*
Y12350D01*
X205200Y49100D02*
Y53600D01*
X197400D02*
X205200D01*
X197400Y49100D02*
X205200D01*
X193998Y49000D02*
Y53500D01*
Y49000D02*
X201798D01*
X193998Y53500D02*
X201798D01*
X74500Y88200D02*
Y89700D01*
X124500Y88200D02*
Y89700D01*
X174500Y88200D02*
Y89700D01*
X224500Y88200D02*
Y89700D01*
X48800Y63100D02*
Y68200D01*
X40200Y63100D02*
X48800D01*
X40200Y68200D02*
X48800D01*
X40200Y63100D02*
Y68200D01*
X69901Y53100D02*
Y58200D01*
X78501D01*
X69901Y53100D02*
X78501D01*
Y58200D01*
Y59100D02*
Y64200D01*
X69901Y59100D02*
X78501D01*
X69901Y64200D02*
X78501D01*
X69901Y59100D02*
Y64200D01*
X260000Y83000D02*
Y88100D01*
X268600D01*
X260000Y83000D02*
X268600D01*
Y88100D01*
X259700Y11300D02*
Y16400D01*
X268300D01*
X259700Y11300D02*
X268300D01*
Y16400D01*
X85700Y77600D02*
Y82700D01*
X94300D01*
X85700Y77600D02*
X94300D01*
Y82700D01*
X63100Y55468D02*
X68200D01*
X63100D02*
Y64068D01*
X68200Y55468D02*
Y64068D01*
X63100D02*
X68200D01*
X59001Y67800D02*
Y72900D01*
X50401Y67800D02*
X59001D01*
X50401Y72900D02*
X59001D01*
X50401Y67800D02*
Y72900D01*
X49400Y84100D02*
Y89200D01*
X58000D01*
X49400Y84100D02*
X58000D01*
Y89200D01*
X39200Y35100D02*
Y40200D01*
X47800D01*
X39200Y35100D02*
X47800D01*
Y40200D01*
X240900Y83100D02*
Y88200D01*
X249500D01*
X240900Y83100D02*
X249500D01*
Y88200D01*
X250400Y83000D02*
Y88100D01*
X259000D01*
X250400Y83000D02*
X259000D01*
Y88100D01*
X50100Y16700D02*
X55200D01*
X50100D02*
Y25300D01*
X55200Y16700D02*
Y25300D01*
X50100D02*
X55200D01*
X55600Y31200D02*
X60700D01*
X55600D02*
Y39800D01*
X60700Y31200D02*
Y39800D01*
X55600D02*
X60700D01*
X163100Y23800D02*
X168200D01*
Y15200D02*
Y23800D01*
X163100Y15200D02*
Y23800D01*
Y15200D02*
X168200D01*
X163100Y63200D02*
X168200D01*
X163100D02*
Y71800D01*
X168200Y63200D02*
Y71800D01*
X163100D02*
X168200D01*
X133500Y45750D02*
Y54250D01*
X146500D01*
Y45750D02*
Y54250D01*
X133500Y45750D02*
X146500D01*
X56300Y56100D02*
Y63900D01*
X60800D01*
Y56100D02*
Y63900D01*
X56300Y56100D02*
X60800D01*
X66698Y51200D02*
X74498D01*
X66698Y46700D02*
X74498D01*
X66698D02*
Y51200D01*
X31250Y59000D02*
X39750D01*
Y41000D02*
Y59000D01*
X31250Y41000D02*
X39750D01*
X31250D02*
Y59000D01*
X30779Y60000D02*
X36779D01*
X30779D02*
Y65000D01*
X36779D01*
Y60000D02*
Y65000D01*
X37000Y71000D02*
Y77000D01*
X32000Y71000D02*
X37000D01*
X32000D02*
Y77000D01*
X37000D01*
X32000Y80000D02*
Y86000D01*
X37000D01*
Y80000D02*
Y86000D01*
X32000Y80000D02*
X37000D01*
X44200Y68801D02*
Y76601D01*
X39700Y68801D02*
X44200D01*
X39700D02*
Y76601D01*
X44200D01*
X42800Y22600D02*
Y30400D01*
X47300D01*
Y22600D02*
Y30400D01*
X42800Y22600D02*
X47300D01*
X47200Y12100D02*
Y19900D01*
X42700Y12100D02*
X47200D01*
X42700D02*
Y19900D01*
X47200D01*
X177200Y83900D02*
X181700D01*
X177200Y76100D02*
Y83900D01*
Y76100D02*
X181700D01*
Y83900D01*
X177300Y15600D02*
X181800D01*
Y23400D01*
X177300D02*
X181800D01*
X177300Y15600D02*
Y23400D01*
X77900Y46800D02*
Y51300D01*
X70100D02*
X77900D01*
X70100Y46800D02*
X77900D01*
X170700Y75700D02*
X175500D01*
X170700D02*
Y85200D01*
X175500Y75700D02*
Y85200D01*
X170700D02*
X175500D01*
X170500Y24300D02*
X175300D01*
Y14800D02*
Y24300D01*
X170500Y14800D02*
Y24300D01*
Y14800D02*
X175300D01*
X93400Y83800D02*
Y88300D01*
X85600D02*
X93400D01*
X85600Y83800D02*
Y88300D01*
Y83800D02*
X93400D01*
X50100Y73700D02*
Y78200D01*
Y73700D02*
X57900D01*
Y78200D01*
X50100D02*
X57900D01*
X50100Y78700D02*
Y83200D01*
Y78700D02*
X57900D01*
Y83200D01*
X50100D02*
X57900D01*
X91400Y55300D02*
Y59800D01*
X83600D02*
X91400D01*
X83600Y55300D02*
Y59800D01*
Y55300D02*
X91400D01*
X83600Y65200D02*
Y69700D01*
Y65200D02*
X91400D01*
Y69700D01*
X83600D02*
X91400D01*
X39800Y79100D02*
X44300D01*
Y86900D01*
X39800D02*
X44300D01*
X39800Y79100D02*
Y86900D01*
X91400Y60300D02*
Y64800D01*
X83600D02*
X91400D01*
X83600Y60300D02*
Y64800D01*
Y60300D02*
X91400D01*
X37500Y12779D02*
Y18779D01*
X32500Y12779D02*
X37500D01*
X32500D02*
Y18779D01*
X37500D01*
X32500Y19279D02*
Y25280D01*
X37500D01*
Y19279D02*
Y25280D01*
X32500Y19279D02*
X37500D01*
X31000Y35000D02*
X37000D01*
X31000D02*
Y40000D01*
X37000D01*
Y35000D02*
Y40000D01*
X207400Y12800D02*
Y17300D01*
X199600D02*
X207400D01*
X199600Y12800D02*
Y17300D01*
Y12800D02*
X207400D01*
X217400D02*
Y17300D01*
X209600D02*
X217400D01*
X209600Y12800D02*
Y17300D01*
Y12800D02*
X217400D01*
X196100Y81700D02*
Y86200D01*
Y81700D02*
X203900D01*
Y86200D01*
X196100D02*
X203900D01*
X196100Y76700D02*
Y81200D01*
Y76700D02*
X203900D01*
Y81200D01*
X196100D02*
X203900D01*
X163300Y28600D02*
X167800D01*
Y36400D01*
X163300D02*
X167800D01*
X163300Y28600D02*
Y36400D01*
X99800Y60100D02*
X104300D01*
Y67900D01*
X99800D02*
X104300D01*
X99800Y60100D02*
Y67900D01*
X99700Y87400D02*
X104200D01*
X99700Y79600D02*
Y87400D01*
Y79600D02*
X104200D01*
Y87400D01*
X205200Y42300D02*
Y46800D01*
X197400D02*
X205200D01*
X197400Y42300D02*
X205200D01*
X193998Y42200D02*
Y46700D01*
Y42200D02*
X201798D01*
X193998Y46700D02*
X201798D01*
X171800Y74099D02*
Y70766D01*
X172467Y70100D01*
X173799D01*
X174466Y70766D01*
Y74099D01*
X178464Y73432D02*
X177798Y74099D01*
X176465D01*
X175799Y73432D01*
Y72766D01*
X176465Y72099D01*
X177798D01*
X178464Y71433D01*
Y70766D01*
X177798Y70100D01*
X176465D01*
X175799Y70766D01*
X182463Y74099D02*
X179797D01*
Y70100D01*
X182463D01*
X179797Y72099D02*
X181130D01*
X183796Y70100D02*
Y74099D01*
X185795D01*
X186462Y73432D01*
Y72099D01*
X185795Y71433D01*
X183796D01*
X185129D02*
X186462Y70100D01*
X171800Y26300D02*
Y30299D01*
X173799D01*
X174466Y29632D01*
Y28299D01*
X173799Y27633D01*
X171800D01*
X177798Y30299D02*
X176465D01*
X175799Y29632D01*
Y26966D01*
X176465Y26300D01*
X177798D01*
X178464Y26966D01*
Y29632D01*
X177798Y30299D01*
X179797D02*
Y26300D01*
X181130Y27633D01*
X182463Y26300D01*
Y30299D01*
X186462D02*
X183796D01*
Y26300D01*
X186462D01*
X183796Y28299D02*
X185129D01*
X187795Y26300D02*
Y30299D01*
X189794D01*
X190461Y29632D01*
Y28299D01*
X189794Y27633D01*
X187795D01*
X189128D02*
X190461Y26300D01*
X124300Y60899D02*
Y56900D01*
X126299D01*
X126966Y57566D01*
Y58233D01*
X126299Y58899D01*
X124300D01*
X126299D01*
X126966Y59566D01*
Y60232D01*
X126299Y60899D01*
X124300D01*
X130298D02*
X128965D01*
X128299Y60232D01*
Y57566D01*
X128965Y56900D01*
X130298D01*
X130965Y57566D01*
Y60232D01*
X130298Y60899D01*
X134297D02*
X132964D01*
X132297Y60232D01*
Y57566D01*
X132964Y56900D01*
X134297D01*
X134963Y57566D01*
Y60232D01*
X134297Y60899D01*
X136296D02*
X138962D01*
X137629D01*
Y56900D01*
X140295D02*
X142961Y59566D01*
X144294Y60899D02*
Y57566D01*
X144960Y56900D01*
X146293D01*
X146959Y57566D01*
Y60899D01*
X150958Y60232D02*
X150292Y60899D01*
X148959D01*
X148292Y60232D01*
Y59566D01*
X148959Y58899D01*
X150292D01*
X150958Y58233D01*
Y57566D01*
X150292Y56900D01*
X148959D01*
X148292Y57566D01*
X152291Y56900D02*
Y60899D01*
X154290D01*
X154957Y60232D01*
Y58899D01*
X154290Y58233D01*
X152291D01*
X153624D02*
X154957Y56900D01*
X131100Y39200D02*
Y43199D01*
X133099D01*
X133766Y42532D01*
Y41199D01*
X133099Y40533D01*
X131100D01*
X132433D02*
X133766Y39200D01*
X137765Y43199D02*
X135099D01*
Y39200D01*
X137765D01*
X135099Y41199D02*
X136432D01*
X141763Y42532D02*
X141097Y43199D01*
X139764D01*
X139097Y42532D01*
Y41866D01*
X139764Y41199D01*
X141097D01*
X141763Y40533D01*
Y39866D01*
X141097Y39200D01*
X139764D01*
X139097Y39866D01*
X145762Y43199D02*
X143096D01*
Y39200D01*
X145762D01*
X143096Y41199D02*
X144429D01*
X147095Y43199D02*
X149761D01*
X148428D01*
Y39200D01*
X121200Y48300D02*
Y52299D01*
X123199D01*
X123866Y51632D01*
Y50299D01*
X123199Y49633D01*
X121200D01*
X122533D02*
X123866Y48300D01*
X127865Y52299D02*
X125199D01*
Y48300D01*
X127865D01*
X125199Y50299D02*
X126532D01*
X131863Y51632D02*
X131197Y52299D01*
X129864D01*
X129197Y51632D01*
Y48966D01*
X129864Y48300D01*
X131197D01*
X131863Y48966D01*
Y50299D01*
X130530D01*
X148200Y51632D02*
X148866Y52299D01*
X150199D01*
X150866Y51632D01*
Y50966D01*
X150199Y50299D01*
X149533D01*
X150199D01*
X150866Y49633D01*
Y48966D01*
X150199Y48300D01*
X148866D01*
X148200Y48966D01*
X152199Y52299D02*
Y49633D01*
X153532Y48300D01*
X154865Y49633D01*
Y52299D01*
X156197Y51632D02*
X156864Y52299D01*
X158197D01*
X158863Y51632D01*
Y50966D01*
X158197Y50299D01*
X157530D01*
X158197D01*
X158863Y49633D01*
Y48966D01*
X158197Y48300D01*
X156864D01*
X156197Y48966D01*
X41500Y46499D02*
Y43166D01*
X42166Y42500D01*
X43499D01*
X44166Y43166D01*
Y46499D01*
X48164Y45832D02*
X47498Y46499D01*
X46165D01*
X45499Y45832D01*
Y45166D01*
X46165Y44499D01*
X47498D01*
X48164Y43833D01*
Y43166D01*
X47498Y42500D01*
X46165D01*
X45499Y43166D01*
X49497Y46499D02*
Y42500D01*
X51497D01*
X52163Y43166D01*
Y43833D01*
X51497Y44499D01*
X49497D01*
X51497D01*
X52163Y45166D01*
Y45832D01*
X51497Y46499D01*
X49497D01*
X56162Y42500D02*
X53496D01*
X56162Y45166D01*
Y45832D01*
X55496Y46499D01*
X54163D01*
X53496Y45832D01*
X41400Y50099D02*
X44066D01*
X42733Y51432D02*
Y48766D01*
X48065Y52099D02*
X45399D01*
Y50099D01*
X46732Y50766D01*
X47398D01*
X48065Y50099D01*
Y48766D01*
X47398Y48100D01*
X46065D01*
X45399Y48766D01*
X49397Y52099D02*
Y49433D01*
X50730Y48100D01*
X52063Y49433D01*
Y52099D01*
X41500Y58399D02*
Y55066D01*
X42166Y54400D01*
X43499D01*
X44166Y55066D01*
Y58399D01*
X48164Y57732D02*
X47498Y58399D01*
X46165D01*
X45499Y57732D01*
Y57066D01*
X46165Y56399D01*
X47498D01*
X48164Y55733D01*
Y55066D01*
X47498Y54400D01*
X46165D01*
X45499Y55066D01*
X49497Y58399D02*
Y54400D01*
X51497D01*
X52163Y55066D01*
Y55733D01*
X51497Y56399D01*
X49497D01*
X51497D01*
X52163Y57066D01*
Y57732D01*
X51497Y58399D01*
X49497D01*
X53496Y54400D02*
X54829D01*
X54163D01*
Y58399D01*
X53496Y57732D01*
X3600Y57099D02*
Y53766D01*
X4266Y53100D01*
X5599D01*
X6266Y53766D01*
Y57099D01*
X7599Y53100D02*
Y55766D01*
X8932Y57099D01*
X10265Y55766D01*
Y53100D01*
Y55099D01*
X7599D01*
X11597Y53100D02*
Y57099D01*
X13597D01*
X14263Y56432D01*
Y55099D01*
X13597Y54433D01*
X11597D01*
X12930D02*
X14263Y53100D01*
X15596Y57099D02*
X18262D01*
X16929D01*
Y53100D01*
X6266Y48599D02*
X3600D01*
Y44600D01*
X6266D01*
X3600Y46599D02*
X4933D01*
X10265Y47932D02*
X9598Y48599D01*
X8265D01*
X7599Y47932D01*
Y47266D01*
X8265Y46599D01*
X9598D01*
X10265Y45933D01*
Y45266D01*
X9598Y44600D01*
X8265D01*
X7599Y45266D01*
X11597Y44600D02*
Y48599D01*
X13597D01*
X14263Y47932D01*
Y46599D01*
X13597Y45933D01*
X11597D01*
X231766Y17599D02*
X230433D01*
X231099D01*
Y14266D01*
X230433Y13600D01*
X229766D01*
X229100Y14266D01*
X235765Y13600D02*
X233099D01*
X235765Y16266D01*
Y16932D01*
X235098Y17599D01*
X233765D01*
X233099Y16932D01*
X231766Y87599D02*
X230433D01*
X231099D01*
Y84266D01*
X230433Y83600D01*
X229766D01*
X229100Y84266D01*
X233099Y83600D02*
X234432D01*
X233765D01*
Y87599D01*
X233099Y86932D01*
X28100Y53100D02*
X29433D01*
X28766D01*
Y57099D01*
X28100Y56432D01*
D12*
X289799Y19685D02*
Y80315D01*
X269917Y19685D02*
X289799D01*
X209090D02*
Y80315D01*
X269917D02*
X289799D01*
D13*
X12580Y95992D02*
X17501D01*
X-1889D02*
X965D01*
X-1889Y60008D02*
Y95992D01*
X12580Y60008D02*
X17501D01*
X-1889D02*
X965D01*
X-1889Y4508D02*
X965D01*
X12580D02*
X17501D01*
X-1889D02*
Y40492D01*
X965D01*
X12580D02*
X17501D01*
X128878Y13189D02*
X151122D01*
X128189Y20177D02*
Y29823D01*
X128878Y36811D02*
X151122D01*
X151811Y20177D02*
Y29823D01*
Y70177D02*
Y79823D01*
X128878Y86811D02*
X151122D01*
X128189Y70177D02*
Y79823D01*
X128878Y63189D02*
X151122D01*
X63126Y69126D02*
Y71095D01*
Y69126D02*
X65095D01*
X78874D02*
Y71095D01*
X76906Y69126D02*
X78874D01*
X63126Y82906D02*
Y84874D01*
X65095D01*
X78874Y82906D02*
Y84874D01*
X76906D02*
X78874D01*
X70323Y15811D02*
Y42189D01*
X85677Y15811D02*
Y42189D01*
X70323D02*
X85677D01*
X70323Y15811D02*
X85677D01*
X112500Y60791D02*
X115059D01*
Y63646D01*
X112500Y72209D02*
X115059D01*
Y69354D02*
Y72209D01*
X112500Y75291D02*
X115059D01*
Y78146D01*
X112500Y86709D02*
X115059D01*
Y83854D02*
Y86709D01*
D14*
X173100Y84750D02*
D03*
X172900Y15250D02*
D03*
M02*
