G04*
G04 #@! TF.GenerationSoftware,Altium Limited,Altium Designer,25.8.1 (18)*
G04*
G04 Layer_Physical_Order=2*
G04 Layer_Color=36540*
%FSLAX25Y25*%
%MOIN*%
G70*
G04*
G04 #@! TF.SameCoordinates,67B45281-70B3-422D-B4EF-D01C400089C5*
G04*
G04*
G04 #@! TF.FilePolarity,Positive*
G04*
G01*
G75*
G04:AMPARAMS|DCode=53|XSize=39.37mil|YSize=70.87mil|CornerRadius=19.68mil|HoleSize=0mil|Usage=FLASHONLY|Rotation=270.000|XOffset=0mil|YOffset=0mil|HoleType=Round|Shape=RoundedRectangle|*
%AMROUNDEDRECTD53*
21,1,0.03937,0.03150,0,0,270.0*
21,1,0.00000,0.07087,0,0,270.0*
1,1,0.03937,-0.01575,0.00000*
1,1,0.03937,-0.01575,0.00000*
1,1,0.03937,0.01575,0.00000*
1,1,0.03937,0.01575,0.00000*
%
%ADD53ROUNDEDRECTD53*%
G04:AMPARAMS|DCode=54|XSize=39.37mil|YSize=86.61mil|CornerRadius=19.68mil|HoleSize=0mil|Usage=FLASHONLY|Rotation=270.000|XOffset=0mil|YOffset=0mil|HoleType=Round|Shape=RoundedRectangle|*
%AMROUNDEDRECTD54*
21,1,0.03937,0.04724,0,0,270.0*
21,1,0.00000,0.08661,0,0,270.0*
1,1,0.03937,-0.02362,0.00000*
1,1,0.03937,-0.02362,0.00000*
1,1,0.03937,0.02362,0.00000*
1,1,0.03937,0.02362,0.00000*
%
%ADD54ROUNDEDRECTD54*%
%ADD61C,0.02000*%
%ADD62C,0.01500*%
%ADD67R,0.06400X0.06400*%
%ADD68C,0.06400*%
%ADD69C,0.04000*%
%ADD70R,0.04000X0.04000*%
%ADD71R,0.04000X0.04000*%
%ADD72C,0.02400*%
%ADD73C,0.06000*%
%ADD74C,0.04000*%
G36*
X268243Y98028D02*
X269000Y97372D01*
Y92282D01*
X268964Y92133D01*
X268700Y91320D01*
X261320D01*
Y98028D01*
X268243D01*
D02*
G37*
G36*
X91053Y97254D02*
X91110Y97028D01*
X90586Y96121D01*
X90300Y95053D01*
Y93947D01*
X90586Y92879D01*
X91139Y91921D01*
X90779Y90949D01*
X90742Y90893D01*
X90691Y90848D01*
X90632Y90729D01*
X90558Y90618D01*
X90545Y90552D01*
X90515Y90491D01*
X90506Y90358D01*
X90480Y90228D01*
Y86526D01*
X88000D01*
X88000Y86526D01*
X87217Y86423D01*
X86487Y86120D01*
X85860Y85640D01*
X85300Y85079D01*
X84709Y85244D01*
X84260Y85454D01*
X84026Y86020D01*
X83520Y86526D01*
X82858Y86800D01*
X82142D01*
X81480Y86526D01*
X80974Y86020D01*
X80700Y85358D01*
Y84642D01*
X80974Y83980D01*
X81480Y83474D01*
X82046Y83240D01*
X82256Y82791D01*
X82421Y82200D01*
X80860Y80640D01*
X80379Y80013D01*
X80077Y79283D01*
X79974Y78500D01*
Y63000D01*
X80077Y62217D01*
X80379Y61487D01*
X80860Y60860D01*
X81174Y60547D01*
Y54953D01*
X77860Y51640D01*
X77380Y51013D01*
X77077Y50283D01*
X76974Y49500D01*
X77077Y48717D01*
X77380Y47987D01*
X77860Y47360D01*
X78487Y46880D01*
X79217Y46577D01*
X80000Y46474D01*
X80783Y46577D01*
X81513Y46880D01*
X82140Y47360D01*
X86340Y51560D01*
X86821Y52187D01*
X87123Y52917D01*
X87226Y53700D01*
X87226Y53700D01*
Y61800D01*
X87226Y61800D01*
X87123Y62583D01*
X86821Y63313D01*
X86340Y63940D01*
X86340Y63940D01*
X86026Y64253D01*
Y68647D01*
X87026Y69315D01*
X87062Y69300D01*
X87938D01*
X88746Y69635D01*
X89365Y70254D01*
X89700Y71062D01*
Y71938D01*
X89365Y72746D01*
X88746Y73365D01*
X87938Y73700D01*
X87062D01*
X87026Y73685D01*
X86026Y74353D01*
Y77247D01*
X89253Y80474D01*
X90480D01*
Y79500D01*
X90558Y79110D01*
X90779Y78779D01*
X91110Y78558D01*
X91500Y78480D01*
X102078D01*
X120279Y60279D01*
X120610Y60058D01*
X121000Y59980D01*
X135480D01*
Y55000D01*
X135558Y54610D01*
X135779Y54279D01*
X136134Y53924D01*
X135751Y53000D01*
X134500D01*
Y50197D01*
X134474Y50000D01*
Y44753D01*
X132895Y43174D01*
X132132Y43073D01*
X131159Y42670D01*
X130324Y42029D01*
X129682Y41194D01*
X129279Y40220D01*
X129142Y39176D01*
Y30347D01*
X126129Y27334D01*
X64300D01*
X63256Y27197D01*
X62283Y26794D01*
X61447Y26153D01*
X60806Y25317D01*
X60403Y24344D01*
X60303Y23582D01*
X59930Y23209D01*
X59883Y23180D01*
X59727Y23092D01*
X55222Y19220D01*
X51100D01*
X51075Y19215D01*
X51051Y19218D01*
X50881Y19176D01*
X50710Y19142D01*
X50689Y19128D01*
X50665Y19122D01*
X47065Y17422D01*
X46924Y17318D01*
X46779Y17221D01*
X46765Y17200D01*
X46745Y17185D01*
X46655Y17036D01*
X46558Y16890D01*
X46553Y16866D01*
X46540Y16844D01*
X46514Y16671D01*
X46480Y16500D01*
Y15048D01*
X46474Y15000D01*
X46480Y14952D01*
Y13372D01*
X46514Y13204D01*
X46539Y13033D01*
X46847Y12161D01*
X46861Y12137D01*
X46866Y12110D01*
X46962Y11967D01*
X47050Y11818D01*
X47072Y11802D01*
X47087Y11779D01*
X47230Y11683D01*
X47368Y11580D01*
X47395Y11573D01*
X47418Y11558D01*
X47587Y11524D01*
X47754Y11482D01*
X47781Y11486D01*
X47808Y11480D01*
X61300D01*
X61690Y11558D01*
X62021Y11779D01*
X62242Y12110D01*
X62320Y12500D01*
Y17040D01*
X64545Y19265D01*
X127800D01*
X127800Y19265D01*
X128844Y19403D01*
X129817Y19806D01*
X130653Y20447D01*
X136029Y25824D01*
X136029Y25824D01*
X136670Y26659D01*
X137073Y27632D01*
X137211Y28676D01*
Y38932D01*
X139640Y41360D01*
X140120Y41987D01*
X140423Y42717D01*
X140526Y43500D01*
X140526Y43500D01*
Y45980D01*
X145300D01*
X145690Y46058D01*
X146021Y46279D01*
X146242Y46610D01*
X146320Y47000D01*
Y48804D01*
X147062Y49300D01*
X147938D01*
X148746Y49635D01*
X149365Y50254D01*
X149700Y51062D01*
Y51938D01*
X149365Y52746D01*
X148746Y53365D01*
X147938Y53700D01*
X147062D01*
X146320Y54196D01*
Y56347D01*
X146286Y56518D01*
X146260Y56690D01*
X146247Y56712D01*
X146242Y56738D01*
X146145Y56882D01*
X146056Y57031D01*
X144369Y58896D01*
X144637Y60090D01*
X144746Y60135D01*
X145365Y60754D01*
X145700Y61562D01*
Y62438D01*
X145365Y63246D01*
X144746Y63865D01*
X144468Y63980D01*
X144667Y64980D01*
X172955D01*
X173369Y63980D01*
X173135Y63746D01*
X172800Y62938D01*
Y62062D01*
X173038Y61487D01*
X172190Y60921D01*
X171746Y61365D01*
X170938Y61700D01*
X170062D01*
X169254Y61365D01*
X168635Y60746D01*
X168300Y59938D01*
Y59062D01*
X168635Y58254D01*
X169254Y57635D01*
X170062Y57300D01*
X170938D01*
X171746Y57635D01*
X172365Y58254D01*
X172700Y59062D01*
Y59938D01*
X172462Y60513D01*
X173310Y61079D01*
X173754Y60635D01*
X174562Y60300D01*
X175438D01*
X176246Y60635D01*
X176865Y61254D01*
X177200Y62062D01*
Y62938D01*
X176865Y63746D01*
X176631Y63980D01*
X177045Y64980D01*
X179863D01*
X180201Y64638D01*
X180537Y64068D01*
X180400Y63738D01*
Y62862D01*
X180735Y62054D01*
X181354Y61435D01*
X182162Y61100D01*
X183038D01*
X183846Y61435D01*
X184465Y62054D01*
X184800Y62862D01*
Y63738D01*
X184465Y64546D01*
X183846Y65165D01*
X183038Y65500D01*
X182356D01*
X181987Y66047D01*
X181866Y66424D01*
X185422Y69980D01*
X187300D01*
Y69562D01*
X187635Y68754D01*
X188254Y68135D01*
X189062Y67800D01*
X189211D01*
X190000Y67195D01*
X190032Y66876D01*
Y66295D01*
X190367Y65486D01*
X190986Y64867D01*
X191795Y64532D01*
X192670D01*
X193479Y64867D01*
X194097Y65486D01*
X194432Y66295D01*
Y67170D01*
X194097Y67979D01*
X193479Y68597D01*
X192670Y68932D01*
X192627D01*
X191843Y69651D01*
X191845Y70464D01*
X192027Y70585D01*
X193269Y71827D01*
X193635Y71754D01*
X194254Y71135D01*
X195062Y70800D01*
X195938D01*
X196746Y71135D01*
X197365Y71754D01*
X197700Y72562D01*
Y73438D01*
X197365Y74246D01*
X196746Y74865D01*
X196673Y75231D01*
X199922Y78480D01*
X247078D01*
X249315Y76243D01*
X249215Y75764D01*
X248961Y75183D01*
X248297Y74908D01*
X247678Y74290D01*
X247343Y73481D01*
Y72606D01*
X247678Y71797D01*
X248297Y71178D01*
X249106Y70843D01*
X249981D01*
X250480Y71050D01*
X251301Y70650D01*
X251480Y70464D01*
Y58111D01*
X251558Y57721D01*
X251779Y57390D01*
X252005Y57165D01*
X252184Y56731D01*
Y56261D01*
X252005Y55827D01*
X251779Y55602D01*
X251558Y55271D01*
X251480Y54881D01*
Y51615D01*
X251558Y51225D01*
X251779Y50894D01*
X252005Y50669D01*
X252184Y50235D01*
Y49765D01*
X252005Y49331D01*
X251779Y49106D01*
X251558Y48775D01*
X251480Y48385D01*
Y45119D01*
X251558Y44729D01*
X251779Y44398D01*
X252005Y44173D01*
X252184Y43739D01*
Y43269D01*
X252005Y42835D01*
X251779Y42610D01*
X251558Y42279D01*
X251480Y41889D01*
Y34975D01*
X251301Y34789D01*
X250480Y34389D01*
X249981Y34596D01*
X249106D01*
X248297Y34261D01*
X247678Y33642D01*
X247343Y32834D01*
Y31958D01*
X247678Y31150D01*
X248297Y30531D01*
X249106Y30196D01*
X249480D01*
Y29101D01*
X249558Y28710D01*
X249779Y28380D01*
X250110Y28159D01*
X251110Y27744D01*
X251500Y27667D01*
X251890Y27744D01*
X251985Y27808D01*
X252553Y28043D01*
X253022D01*
X253456Y27863D01*
X253740Y27580D01*
X254039Y27380D01*
X254070Y27182D01*
Y26544D01*
X254039Y26345D01*
X253740Y26145D01*
X253740Y26145D01*
X253456Y25862D01*
X253022Y25682D01*
X252553D01*
X251985Y25917D01*
X251890Y25981D01*
X251500Y26058D01*
X251110Y25981D01*
X251110Y25981D01*
X250110Y25567D01*
X249779Y25345D01*
X249558Y25015D01*
X249480Y24624D01*
Y20020D01*
X238500D01*
X238110Y19942D01*
X237779Y19721D01*
X229779Y11721D01*
X229558Y11390D01*
X229480Y11000D01*
Y8854D01*
X229558Y8464D01*
X229779Y8133D01*
X230110Y7912D01*
X230352Y7812D01*
X230586Y7121D01*
X230300Y6053D01*
Y4947D01*
X230586Y3879D01*
X230929Y3285D01*
X230454Y2283D01*
X228532Y2272D01*
X228062Y3269D01*
X228414Y3879D01*
X228700Y4947D01*
Y6053D01*
X228414Y7121D01*
X227861Y8079D01*
X227079Y8861D01*
X226121Y9414D01*
X225053Y9700D01*
X223947D01*
X222879Y9414D01*
X221921Y8861D01*
X221139Y8079D01*
X220586Y7121D01*
X220300Y6053D01*
Y4947D01*
X220586Y3879D01*
X220961Y3229D01*
X220527Y2227D01*
X218458Y2215D01*
X218029Y3213D01*
X218414Y3879D01*
X218700Y4947D01*
Y6053D01*
X218414Y7121D01*
X217861Y8079D01*
X217079Y8861D01*
X216121Y9414D01*
X215053Y9700D01*
X213947D01*
X212879Y9414D01*
X211921Y8861D01*
X211139Y8079D01*
X210586Y7121D01*
X210300Y6053D01*
Y4947D01*
X210586Y3879D01*
X210994Y3173D01*
X210599Y2171D01*
X208384Y2158D01*
X207996Y3156D01*
X208414Y3879D01*
X208700Y4947D01*
Y6053D01*
X208414Y7121D01*
X207861Y8079D01*
X207079Y8861D01*
X206121Y9414D01*
X205053Y9700D01*
X203947D01*
X202879Y9414D01*
X201921Y8861D01*
X201139Y8079D01*
X200586Y7121D01*
X200300Y6053D01*
Y4947D01*
X200586Y3879D01*
X201026Y3117D01*
X200796Y2465D01*
X200532Y2114D01*
X198456Y2102D01*
X198176Y2487D01*
X197964Y3099D01*
X198414Y3879D01*
X198700Y4947D01*
Y6053D01*
X198414Y7121D01*
X197861Y8079D01*
X197079Y8861D01*
X196121Y9414D01*
X195053Y9700D01*
X193947D01*
X192879Y9414D01*
X191921Y8861D01*
X191139Y8079D01*
X190586Y7121D01*
X190300Y6053D01*
Y4947D01*
X190586Y3879D01*
X191059Y3060D01*
X190896Y2540D01*
X190588Y2058D01*
X188399Y2046D01*
X188074Y2574D01*
X187931Y3043D01*
X188414Y3879D01*
X188700Y4947D01*
Y6053D01*
X188414Y7121D01*
X187861Y8079D01*
X187079Y8861D01*
X186121Y9414D01*
X185053Y9700D01*
X183947D01*
X182879Y9414D01*
X181921Y8861D01*
X181139Y8079D01*
X180586Y7121D01*
X180300Y6053D01*
Y4947D01*
X180586Y3879D01*
X181091Y3004D01*
X180996Y2655D01*
X180644Y2002D01*
X178343Y1989D01*
X177973Y2704D01*
X177899Y2986D01*
X178414Y3879D01*
X178700Y4947D01*
Y6053D01*
X178414Y7121D01*
X177861Y8079D01*
X177079Y8861D01*
X176121Y9414D01*
X175053Y9700D01*
X173947D01*
X172879Y9414D01*
X171921Y8861D01*
X171139Y8079D01*
X170586Y7121D01*
X170300Y6053D01*
Y4947D01*
X170586Y3879D01*
X171139Y2921D01*
X170700Y1946D01*
X168286Y1932D01*
X167861Y2921D01*
X168414Y3879D01*
X168700Y4947D01*
Y6053D01*
X168414Y7121D01*
X167861Y8079D01*
X167079Y8861D01*
X166121Y9414D01*
X165053Y9700D01*
X163947D01*
X162879Y9414D01*
X161921Y8861D01*
X161139Y8079D01*
X160586Y7121D01*
X160300Y6053D01*
Y4947D01*
X160586Y3879D01*
X161139Y2921D01*
X161168Y2892D01*
X160757Y1890D01*
X158229Y1875D01*
X157813Y2873D01*
X157861Y2921D01*
X158414Y3879D01*
X158700Y4947D01*
Y6053D01*
X158414Y7121D01*
X157861Y8079D01*
X157079Y8861D01*
X156121Y9414D01*
X155053Y9700D01*
X153947D01*
X152879Y9414D01*
X151921Y8861D01*
X151139Y8079D01*
X150586Y7121D01*
X150300Y6053D01*
Y4947D01*
X150586Y3879D01*
X151139Y2921D01*
X151224Y2836D01*
X150813Y1833D01*
X148173Y1819D01*
X147756Y2816D01*
X147861Y2921D01*
X148414Y3879D01*
X148700Y4947D01*
Y6053D01*
X148414Y7121D01*
X147861Y8079D01*
X147079Y8861D01*
X146121Y9414D01*
X145053Y9700D01*
X143947D01*
X142879Y9414D01*
X141921Y8861D01*
X141139Y8079D01*
X140586Y7121D01*
X140300Y6053D01*
Y4947D01*
X140586Y3879D01*
X141139Y2921D01*
X141280Y2780D01*
X140869Y1777D01*
X138116Y1762D01*
X137699Y2760D01*
X137861Y2921D01*
X138414Y3879D01*
X138700Y4947D01*
Y6053D01*
X138414Y7121D01*
X137861Y8079D01*
X137079Y8861D01*
X136121Y9414D01*
X135053Y9700D01*
X133947D01*
X132879Y9414D01*
X131921Y8861D01*
X131139Y8079D01*
X130586Y7121D01*
X130300Y6053D01*
Y4947D01*
X130586Y3879D01*
X131139Y2921D01*
X131337Y2724D01*
X130925Y1721D01*
X128059Y1705D01*
X127643Y2703D01*
X127861Y2921D01*
X128414Y3879D01*
X128700Y4947D01*
Y6053D01*
X128414Y7121D01*
X127861Y8079D01*
X127079Y8861D01*
X126121Y9414D01*
X125053Y9700D01*
X123947D01*
X122879Y9414D01*
X121921Y8861D01*
X121139Y8079D01*
X120586Y7121D01*
X120300Y6053D01*
Y4947D01*
X120586Y3879D01*
X121139Y2921D01*
X121393Y2668D01*
X120981Y1665D01*
X118002Y1649D01*
X117586Y2646D01*
X117861Y2921D01*
X118414Y3879D01*
X118700Y4947D01*
Y6053D01*
X118414Y7121D01*
X117861Y8079D01*
X117079Y8861D01*
X116121Y9414D01*
X115053Y9700D01*
X113947D01*
X112879Y9414D01*
X111921Y8861D01*
X111139Y8079D01*
X110586Y7121D01*
X110300Y6053D01*
Y4947D01*
X110586Y3879D01*
X111139Y2921D01*
X111449Y2612D01*
X111037Y1609D01*
X107946Y1592D01*
X107529Y2589D01*
X107861Y2921D01*
X108414Y3879D01*
X108700Y4947D01*
Y6053D01*
X108414Y7121D01*
X107861Y8079D01*
X107079Y8861D01*
X106121Y9414D01*
X105053Y9700D01*
X103947D01*
X102879Y9414D01*
X101921Y8861D01*
X101139Y8079D01*
X100586Y7121D01*
X100300Y6053D01*
Y4947D01*
X100586Y3879D01*
X101139Y2921D01*
X101505Y2555D01*
X101093Y1553D01*
X97889Y1535D01*
X97473Y2533D01*
X97861Y2921D01*
X98414Y3879D01*
X98700Y4947D01*
Y6053D01*
X98414Y7121D01*
X97861Y8079D01*
X97079Y8861D01*
X96121Y9414D01*
X95053Y9700D01*
X93947D01*
X92879Y9414D01*
X91921Y8861D01*
X91139Y8079D01*
X90586Y7121D01*
X90300Y6053D01*
Y4947D01*
X90586Y3879D01*
X91139Y2921D01*
X91561Y2499D01*
X91149Y1497D01*
X87832Y1478D01*
X87416Y2476D01*
X87861Y2921D01*
X88414Y3879D01*
X88700Y4947D01*
Y6053D01*
X88414Y7121D01*
X87861Y8079D01*
X87079Y8861D01*
X86121Y9414D01*
X85053Y9700D01*
X83947D01*
X82879Y9414D01*
X81921Y8861D01*
X81139Y8079D01*
X80586Y7121D01*
X80300Y6053D01*
Y4947D01*
X80586Y3879D01*
X81139Y2921D01*
X81617Y2443D01*
X81205Y1441D01*
X77433Y1420D01*
X77158Y1926D01*
X77075Y2418D01*
X77701Y3044D01*
X78227Y3956D01*
X78500Y4973D01*
Y6027D01*
X78227Y7044D01*
X77701Y7956D01*
X76956Y8701D01*
X76044Y9227D01*
X75027Y9500D01*
X73973D01*
X72956Y9227D01*
X72044Y8701D01*
X71299Y7956D01*
X70773Y7044D01*
X70500Y6027D01*
Y4973D01*
X70773Y3956D01*
X71299Y3044D01*
X71954Y2389D01*
X71905Y1998D01*
X71624Y1387D01*
X67334Y1363D01*
X67042Y2086D01*
X67018Y2361D01*
X67701Y3044D01*
X68227Y3956D01*
X68500Y4973D01*
Y6027D01*
X68227Y7044D01*
X67701Y7956D01*
X66956Y8701D01*
X66044Y9227D01*
X65027Y9500D01*
X63973D01*
X62956Y9227D01*
X62044Y8701D01*
X61299Y7956D01*
X60773Y7044D01*
X60500Y6027D01*
Y4973D01*
X60773Y3956D01*
X61299Y3044D01*
X62010Y2333D01*
X62003Y2177D01*
X61721Y1331D01*
X57606Y1308D01*
X57411Y1615D01*
X57246Y2306D01*
X57861Y2921D01*
X58414Y3879D01*
X58700Y4947D01*
Y6053D01*
X58414Y7121D01*
X57861Y8079D01*
X57079Y8861D01*
X56121Y9414D01*
X55053Y9700D01*
X53947D01*
X52879Y9414D01*
X51921Y8861D01*
X51139Y8079D01*
X50586Y7121D01*
X50300Y6053D01*
Y4947D01*
X50586Y3879D01*
X51139Y2921D01*
X51785Y2275D01*
X51680Y1722D01*
X51421Y1273D01*
X47541Y1251D01*
X47262Y1788D01*
X47189Y2249D01*
X47861Y2921D01*
X48414Y3879D01*
X48700Y4947D01*
Y6053D01*
X48414Y7121D01*
X47861Y8079D01*
X47079Y8861D01*
X46121Y9414D01*
X45053Y9700D01*
X43947D01*
X42879Y9414D01*
X41921Y8861D01*
X41139Y8079D01*
X40586Y7121D01*
X40300Y6053D01*
Y4947D01*
X40586Y3879D01*
X41139Y2921D01*
X41841Y2219D01*
X41802Y1867D01*
X41518Y1217D01*
X3309Y1002D01*
X2600Y1707D01*
Y98028D01*
X30675D01*
X31054Y97254D01*
X31110Y97028D01*
X30586Y96121D01*
X30300Y95053D01*
Y93947D01*
X30586Y92879D01*
X31139Y91921D01*
X31921Y91139D01*
X32879Y90586D01*
X33947Y90300D01*
X35053D01*
X36121Y90586D01*
X37079Y91139D01*
X37861Y91921D01*
X38414Y92879D01*
X38700Y93947D01*
Y95053D01*
X38414Y96121D01*
X37890Y97028D01*
X37947Y97254D01*
X38325Y98028D01*
X50675D01*
X51054Y97254D01*
X51110Y97028D01*
X50586Y96121D01*
X50300Y95053D01*
Y93947D01*
X50586Y92879D01*
X51139Y91921D01*
X51921Y91139D01*
X52879Y90586D01*
X53947Y90300D01*
X55053D01*
X56121Y90586D01*
X57079Y91139D01*
X57861Y91921D01*
X58414Y92879D01*
X58700Y93947D01*
Y95053D01*
X58414Y96121D01*
X57890Y97028D01*
X57946Y97254D01*
X58325Y98028D01*
X60675D01*
X61054Y97254D01*
X61110Y97028D01*
X60586Y96121D01*
X60300Y95053D01*
Y93947D01*
X60586Y92879D01*
X61139Y91921D01*
X61921Y91139D01*
X62879Y90586D01*
X63947Y90300D01*
X65053D01*
X66121Y90586D01*
X67079Y91139D01*
X67861Y91921D01*
X68414Y92879D01*
X68700Y93947D01*
Y95053D01*
X68414Y96121D01*
X67890Y97028D01*
X67946Y97254D01*
X68325Y98028D01*
X70675D01*
X71053Y97254D01*
X71110Y97028D01*
X70586Y96121D01*
X70300Y95053D01*
Y93947D01*
X70586Y92879D01*
X71139Y91921D01*
X71921Y91139D01*
X72879Y90586D01*
X73947Y90300D01*
X74840D01*
X75238Y89811D01*
X75408Y89360D01*
X75200Y88858D01*
Y88142D01*
X75474Y87480D01*
X75980Y86974D01*
X76642Y86700D01*
X77358D01*
X78020Y86974D01*
X78526Y87480D01*
X78800Y88142D01*
Y88858D01*
X78526Y89520D01*
X78020Y90026D01*
X77514Y90236D01*
X77317Y90644D01*
X77240Y91300D01*
X77861Y91921D01*
X78414Y92879D01*
X78700Y93947D01*
Y95053D01*
X78414Y96121D01*
X77890Y97028D01*
X77947Y97254D01*
X78325Y98028D01*
X80675D01*
X81054Y97254D01*
X81110Y97028D01*
X80586Y96121D01*
X80300Y95053D01*
Y93947D01*
X80586Y92879D01*
X81139Y91921D01*
X81921Y91139D01*
X82879Y90586D01*
X83947Y90300D01*
X85053D01*
X86121Y90586D01*
X87079Y91139D01*
X87861Y91921D01*
X88414Y92879D01*
X88700Y93947D01*
Y95053D01*
X88414Y96121D01*
X87890Y97028D01*
X87946Y97254D01*
X88325Y98028D01*
X90675D01*
X91053Y97254D01*
D02*
G37*
G36*
X245076Y89570D02*
X245093Y89549D01*
X245131Y89358D01*
X245167Y89166D01*
X245170Y89163D01*
X245171Y89158D01*
X245180Y89135D01*
Y88665D01*
X245001Y88231D01*
X244669Y87899D01*
X244235Y87720D01*
X243765D01*
X243331Y87899D01*
X242999Y88231D01*
X242820Y88665D01*
Y89135D01*
X243077Y89756D01*
X243867Y90259D01*
X244104Y90296D01*
X245076Y89570D01*
D02*
G37*
G36*
X260300Y90300D02*
X268700D01*
X269000Y89424D01*
Y80742D01*
X268975Y80705D01*
X268898Y80315D01*
Y19685D01*
X268062Y19200D01*
X267254Y18865D01*
X266635Y18246D01*
X266300Y17438D01*
Y16562D01*
X266635Y15754D01*
X267254Y15135D01*
X268062Y14800D01*
X268938D01*
X269000Y14758D01*
Y2500D01*
X258772D01*
X258195Y3500D01*
X258414Y3879D01*
X258700Y4947D01*
Y6053D01*
X258414Y7121D01*
X257861Y8079D01*
X257079Y8861D01*
X256121Y9414D01*
X255053Y9700D01*
X253947D01*
X252879Y9414D01*
X251921Y8861D01*
X251139Y8079D01*
X250586Y7121D01*
X250300Y6053D01*
Y4947D01*
X250586Y3879D01*
X250805Y3500D01*
X250228Y2500D01*
X248772D01*
X248195Y3500D01*
X248414Y3879D01*
X248700Y4947D01*
Y6053D01*
X248414Y7121D01*
X247861Y8079D01*
X247079Y8861D01*
X246121Y9414D01*
X245053Y9700D01*
X243947D01*
X242879Y9414D01*
X241921Y8861D01*
X241139Y8079D01*
X240586Y7121D01*
X240300Y6053D01*
Y4947D01*
X240586Y3879D01*
X240805Y3500D01*
X240228Y2500D01*
X238772D01*
X238195Y3500D01*
X238414Y3879D01*
X238700Y4947D01*
Y6053D01*
X238414Y7121D01*
X237861Y8079D01*
X237079Y8861D01*
X236121Y9414D01*
X235053Y9700D01*
X233947D01*
X232879Y9414D01*
X231921Y8861D01*
X231500Y8440D01*
X230500Y8854D01*
Y11000D01*
X238500Y19000D01*
X250500D01*
Y24624D01*
X251500Y25039D01*
X251541Y24997D01*
X252350Y24663D01*
X253225D01*
X254034Y24997D01*
X254461Y25425D01*
X254888Y24997D01*
X255696Y24663D01*
X256572D01*
X257380Y24997D01*
X257999Y25616D01*
X258334Y26425D01*
Y27300D01*
X257999Y28109D01*
X257380Y28728D01*
X256572Y29063D01*
X255696D01*
X254888Y28728D01*
X254461Y28301D01*
X254034Y28728D01*
X253225Y29063D01*
X252350D01*
X251541Y28728D01*
X251500Y28686D01*
X250500Y29101D01*
Y30411D01*
X250514Y30417D01*
X252500D01*
Y41889D01*
X252869Y42258D01*
X253204Y43066D01*
Y43942D01*
X252869Y44750D01*
X252500Y45119D01*
Y48385D01*
X252869Y48754D01*
X253204Y49562D01*
Y50438D01*
X252869Y51246D01*
X252500Y51615D01*
Y54881D01*
X252869Y55250D01*
X253204Y56059D01*
Y56934D01*
X252869Y57742D01*
X252500Y58111D01*
Y74500D01*
X247500Y79500D01*
X199500D01*
X195200Y75200D01*
X195062D01*
X194254Y74865D01*
X193635Y74246D01*
X193300Y73438D01*
Y73300D01*
X191306Y71306D01*
X190746Y71865D01*
X189938Y72200D01*
X189062D01*
X188254Y71865D01*
X187635Y71246D01*
X187533Y71000D01*
X185000D01*
X180000Y66000D01*
X141200D01*
Y60879D01*
X145300Y56347D01*
Y51938D01*
Y47000D01*
X140526D01*
Y50000D01*
X140500Y50197D01*
Y53000D01*
X138500D01*
X136500Y55000D01*
Y61000D01*
X121000D01*
X102500Y79500D01*
X91500D01*
Y90228D01*
X92500Y90805D01*
X92879Y90586D01*
X93947Y90300D01*
X95053D01*
X96121Y90586D01*
X97079Y91139D01*
X97861Y91921D01*
X98414Y92879D01*
X98700Y93947D01*
Y95053D01*
X98414Y96121D01*
X97861Y97079D01*
X97440Y97500D01*
X97854Y98500D01*
X101146D01*
X101560Y97500D01*
X101139Y97079D01*
X100586Y96121D01*
X100300Y95053D01*
Y93947D01*
X100586Y92879D01*
X101139Y91921D01*
X101921Y91139D01*
X102879Y90586D01*
X103947Y90300D01*
X105053D01*
X106121Y90586D01*
X107079Y91139D01*
X107861Y91921D01*
X108414Y92879D01*
X108700Y93947D01*
Y95053D01*
X108414Y96121D01*
X107861Y97079D01*
X107440Y97500D01*
X107854Y98500D01*
X111146D01*
X111560Y97500D01*
X111139Y97079D01*
X110586Y96121D01*
X110300Y95053D01*
Y93947D01*
X110586Y92879D01*
X111139Y91921D01*
X111921Y91139D01*
X112879Y90586D01*
X113947Y90300D01*
X115053D01*
X116121Y90586D01*
X117079Y91139D01*
X117861Y91921D01*
X118414Y92879D01*
X118700Y93947D01*
Y95053D01*
X118414Y96121D01*
X117861Y97079D01*
X117440Y97500D01*
X117854Y98500D01*
X121146D01*
X121560Y97500D01*
X121139Y97079D01*
X120586Y96121D01*
X120300Y95053D01*
Y93947D01*
X120586Y92879D01*
X121139Y91921D01*
X121921Y91139D01*
X122879Y90586D01*
X123947Y90300D01*
X125053D01*
X126121Y90586D01*
X127079Y91139D01*
X127861Y91921D01*
X128414Y92879D01*
X128700Y93947D01*
Y95053D01*
X128414Y96121D01*
X127861Y97079D01*
X127440Y97500D01*
X127854Y98500D01*
X131146D01*
X131560Y97500D01*
X131139Y97079D01*
X130586Y96121D01*
X130300Y95053D01*
Y93947D01*
X130586Y92879D01*
X131139Y91921D01*
X131921Y91139D01*
X132879Y90586D01*
X133947Y90300D01*
X135053D01*
X136121Y90586D01*
X137079Y91139D01*
X137861Y91921D01*
X138414Y92879D01*
X138700Y93947D01*
Y95053D01*
X138414Y96121D01*
X137861Y97079D01*
X137440Y97500D01*
X137854Y98500D01*
X141146D01*
X141560Y97500D01*
X141139Y97079D01*
X140586Y96121D01*
X140300Y95053D01*
Y93947D01*
X140586Y92879D01*
X141139Y91921D01*
X141921Y91139D01*
X142879Y90586D01*
X143947Y90300D01*
X145053D01*
X146121Y90586D01*
X147079Y91139D01*
X147861Y91921D01*
X148414Y92879D01*
X148700Y93947D01*
Y95053D01*
X148414Y96121D01*
X147861Y97079D01*
X147440Y97500D01*
X147854Y98500D01*
X151146D01*
X151560Y97500D01*
X151139Y97079D01*
X150586Y96121D01*
X150300Y95053D01*
Y93947D01*
X150586Y92879D01*
X151139Y91921D01*
X151921Y91139D01*
X152879Y90586D01*
X153947Y90300D01*
X155053D01*
X156121Y90586D01*
X157079Y91139D01*
X157861Y91921D01*
X158414Y92879D01*
X158700Y93947D01*
Y95053D01*
X158414Y96121D01*
X157861Y97079D01*
X157440Y97500D01*
X157854Y98500D01*
X161146D01*
X161560Y97500D01*
X161139Y97079D01*
X160586Y96121D01*
X160300Y95053D01*
Y93947D01*
X160586Y92879D01*
X161139Y91921D01*
X161921Y91139D01*
X162879Y90586D01*
X163947Y90300D01*
X165053D01*
X166121Y90586D01*
X167079Y91139D01*
X167861Y91921D01*
X168414Y92879D01*
X168700Y93947D01*
Y95053D01*
X168414Y96121D01*
X167861Y97079D01*
X167440Y97500D01*
X167854Y98500D01*
X171146D01*
X171560Y97500D01*
X171139Y97079D01*
X170586Y96121D01*
X170300Y95053D01*
Y93947D01*
X170586Y92879D01*
X171139Y91921D01*
X171921Y91139D01*
X172879Y90586D01*
X173947Y90300D01*
X175053D01*
X176121Y90586D01*
X177079Y91139D01*
X177861Y91921D01*
X178414Y92879D01*
X178700Y93947D01*
Y95053D01*
X178414Y96121D01*
X177861Y97079D01*
X177440Y97500D01*
X177854Y98500D01*
X181146D01*
X181560Y97500D01*
X181139Y97079D01*
X180586Y96121D01*
X180300Y95053D01*
Y93947D01*
X180586Y92879D01*
X181139Y91921D01*
X181921Y91139D01*
X182879Y90586D01*
X183947Y90300D01*
X185053D01*
X186121Y90586D01*
X187079Y91139D01*
X187861Y91921D01*
X188414Y92879D01*
X188700Y93947D01*
Y95053D01*
X188414Y96121D01*
X187861Y97079D01*
X187440Y97500D01*
X187854Y98500D01*
X191146D01*
X191560Y97500D01*
X191139Y97079D01*
X190586Y96121D01*
X190300Y95053D01*
Y93947D01*
X190586Y92879D01*
X191139Y91921D01*
X191921Y91139D01*
X192879Y90586D01*
X193947Y90300D01*
X195053D01*
X196121Y90586D01*
X197079Y91139D01*
X197861Y91921D01*
X198414Y92879D01*
X198700Y93947D01*
Y95053D01*
X198414Y96121D01*
X197861Y97079D01*
X197440Y97500D01*
X197854Y98500D01*
X201146D01*
X201560Y97500D01*
X201139Y97079D01*
X200586Y96121D01*
X200300Y95053D01*
Y93947D01*
X200586Y92879D01*
X201139Y91921D01*
X201921Y91139D01*
X202879Y90586D01*
X203947Y90300D01*
X205053D01*
X206121Y90586D01*
X207079Y91139D01*
X207861Y91921D01*
X208414Y92879D01*
X208700Y93947D01*
Y95053D01*
X208414Y96121D01*
X207861Y97079D01*
X207440Y97500D01*
X207854Y98500D01*
X211146D01*
X211560Y97500D01*
X211139Y97079D01*
X210586Y96121D01*
X210300Y95053D01*
Y93947D01*
X210586Y92879D01*
X211139Y91921D01*
X211921Y91139D01*
X212879Y90586D01*
X213947Y90300D01*
X215053D01*
X216121Y90586D01*
X217079Y91139D01*
X217861Y91921D01*
X218414Y92879D01*
X218700Y93947D01*
Y95053D01*
X218414Y96121D01*
X217861Y97079D01*
X217440Y97500D01*
X217854Y98500D01*
X221146D01*
X221560Y97500D01*
X221139Y97079D01*
X220586Y96121D01*
X220300Y95053D01*
Y93947D01*
X220586Y92879D01*
X221139Y91921D01*
X221921Y91139D01*
X222879Y90586D01*
X223947Y90300D01*
X225053D01*
X226121Y90586D01*
X227079Y91139D01*
X227861Y91921D01*
X228414Y92879D01*
X228700Y93947D01*
Y95053D01*
X228414Y96121D01*
X227861Y97079D01*
X227440Y97500D01*
X227854Y98500D01*
X231146D01*
X231560Y97500D01*
X231139Y97079D01*
X230586Y96121D01*
X230300Y95053D01*
Y93947D01*
X230586Y92879D01*
X231139Y91921D01*
X231921Y91139D01*
X232879Y90586D01*
X233947Y90300D01*
X235053D01*
X236121Y90586D01*
X237079Y91139D01*
X237861Y91921D01*
X238414Y92879D01*
X238700Y93947D01*
Y95053D01*
X238414Y96121D01*
X237861Y97079D01*
X237440Y97500D01*
X237854Y98500D01*
X241146D01*
X241560Y97500D01*
X241139Y97079D01*
X240586Y96121D01*
X240300Y95053D01*
Y93947D01*
X240586Y92879D01*
X241139Y91921D01*
X241921Y91139D01*
X242011Y91087D01*
X242135Y90146D01*
X241800Y89338D01*
Y88462D01*
X242135Y87654D01*
X242754Y87035D01*
X243562Y86700D01*
X244438D01*
X245246Y87035D01*
X245865Y87654D01*
X246200Y88462D01*
Y89338D01*
X246113Y89549D01*
X246120Y90398D01*
X246574Y90848D01*
X247079Y91139D01*
X247861Y91921D01*
X248414Y92879D01*
X248700Y93947D01*
Y95053D01*
X248414Y96121D01*
X247861Y97079D01*
X247440Y97500D01*
X247854Y98500D01*
X260300D01*
Y90300D01*
D02*
G37*
G36*
X256755Y27883D02*
X257154Y27484D01*
X257295Y27145D01*
Y26581D01*
X257135Y26194D01*
X256803Y25862D01*
X256369Y25682D01*
X255899D01*
X255465Y25862D01*
X255182Y26145D01*
X254883Y26345D01*
X254851Y26544D01*
Y27182D01*
X254883Y27380D01*
X255182Y27580D01*
X255465Y27863D01*
X255899Y28043D01*
X256369D01*
X256755Y27883D01*
D02*
G37*
G36*
X269000Y17095D02*
Y16864D01*
X268034Y16309D01*
X267734Y16452D01*
X267736Y17527D01*
X268110Y17691D01*
X269000Y17095D01*
D02*
G37*
G36*
X61300Y21902D02*
Y12500D01*
X47808D01*
X47500Y13372D01*
Y16500D01*
X51100Y18200D01*
X55600D01*
X60391Y22319D01*
X61300Y21902D01*
D02*
G37*
G36*
X255728Y8464D02*
X256453Y8045D01*
X257045Y7453D01*
X257464Y6728D01*
X257680Y5919D01*
Y5081D01*
X257464Y4272D01*
X257312Y4010D01*
X257269Y3884D01*
X257210Y3764D01*
X257206Y3697D01*
X257184Y3633D01*
X257193Y3500D01*
X257184Y3367D01*
X256936Y2841D01*
X256816Y2668D01*
X256575Y2430D01*
X252405Y2406D01*
X252149Y2677D01*
X252028Y2865D01*
X251816Y3367D01*
X251807Y3500D01*
X251816Y3633D01*
X251794Y3697D01*
X251790Y3764D01*
X251731Y3884D01*
X251688Y4010D01*
X251536Y4272D01*
X251320Y5081D01*
Y5919D01*
X251536Y6728D01*
X251955Y7453D01*
X252547Y8045D01*
X253272Y8464D01*
X254081Y8680D01*
X254919D01*
X255728Y8464D01*
D02*
G37*
%LPC*%
G36*
X49898Y83000D02*
X49102D01*
X48367Y82696D01*
X47804Y82133D01*
X47500Y81398D01*
Y80602D01*
X47804Y79867D01*
X48367Y79304D01*
X49102Y79000D01*
X49898D01*
X50633Y79304D01*
X51196Y79867D01*
X51500Y80602D01*
Y81398D01*
X51196Y82133D01*
X50633Y82696D01*
X49898Y83000D01*
D02*
G37*
G36*
X32398Y81779D02*
X31602D01*
X30867Y81475D01*
X30305Y80912D01*
X30000Y80177D01*
Y79382D01*
X30305Y78647D01*
X30867Y78084D01*
X31602Y77780D01*
X32398D01*
X33133Y78084D01*
X33696Y78647D01*
X34000Y79382D01*
Y80177D01*
X33696Y80912D01*
X33133Y81475D01*
X32398Y81779D01*
D02*
G37*
G36*
X37331Y79220D02*
X36535D01*
X35800Y78916D01*
X35238Y78353D01*
X34933Y77618D01*
Y76823D01*
X35238Y76088D01*
X35800Y75525D01*
X36535Y75221D01*
X37331D01*
X38066Y75525D01*
X38629Y76088D01*
X38933Y76823D01*
Y77618D01*
X38629Y78353D01*
X38066Y78916D01*
X37331Y79220D01*
D02*
G37*
G36*
X49898Y78000D02*
X49102D01*
X48367Y77696D01*
X47804Y77133D01*
X47500Y76398D01*
Y75602D01*
X47804Y74867D01*
X48367Y74304D01*
X49102Y74000D01*
X49898D01*
X50633Y74304D01*
X51196Y74867D01*
X51500Y75602D01*
Y76398D01*
X51196Y77133D01*
X50633Y77696D01*
X49898Y78000D01*
D02*
G37*
G36*
X243288Y75243D02*
X242413D01*
X241604Y74908D01*
X240985Y74290D01*
X240650Y73481D01*
Y72606D01*
X240985Y71797D01*
X241604Y71178D01*
X242413Y70843D01*
X243288D01*
X244097Y71178D01*
X244715Y71797D01*
X245050Y72606D01*
Y73481D01*
X244715Y74290D01*
X244097Y74908D01*
X243288Y75243D01*
D02*
G37*
G36*
X236595D02*
X235720D01*
X234911Y74908D01*
X234292Y74290D01*
X233958Y73481D01*
Y72606D01*
X234292Y71797D01*
X234911Y71178D01*
X235720Y70843D01*
X236595D01*
X237404Y71178D01*
X238023Y71797D01*
X238357Y72606D01*
Y73481D01*
X238023Y74290D01*
X237404Y74908D01*
X236595Y75243D01*
D02*
G37*
G36*
X229902D02*
X229027D01*
X228218Y74908D01*
X227600Y74290D01*
X227265Y73481D01*
Y72606D01*
X227600Y71797D01*
X228218Y71178D01*
X229027Y70843D01*
X229902D01*
X230711Y71178D01*
X231330Y71797D01*
X231665Y72606D01*
Y73481D01*
X231330Y74290D01*
X230711Y74908D01*
X229902Y75243D01*
D02*
G37*
G36*
X223209D02*
X222334D01*
X221526Y74908D01*
X220907Y74290D01*
X220572Y73481D01*
Y72606D01*
X220907Y71797D01*
X221526Y71178D01*
X222334Y70843D01*
X223209D01*
X224018Y71178D01*
X224637Y71797D01*
X224972Y72606D01*
Y73481D01*
X224637Y74290D01*
X224018Y74908D01*
X223209Y75243D01*
D02*
G37*
G36*
X216638Y74400D02*
X215762D01*
X214954Y74065D01*
X214335Y73446D01*
X214000Y72638D01*
Y71762D01*
X214335Y70954D01*
X214954Y70335D01*
X215762Y70000D01*
X216638D01*
X217446Y70335D01*
X218065Y70954D01*
X218400Y71762D01*
Y72638D01*
X218065Y73446D01*
X217446Y74065D01*
X216638Y74400D01*
D02*
G37*
G36*
X246635Y69804D02*
X245759D01*
X244951Y69469D01*
X244332Y68850D01*
X243997Y68041D01*
Y67166D01*
X244332Y66358D01*
X244951Y65739D01*
X245759Y65404D01*
X246635D01*
X247443Y65739D01*
X248062Y66358D01*
X248397Y67166D01*
Y68041D01*
X248062Y68850D01*
X247443Y69469D01*
X246635Y69804D01*
D02*
G37*
G36*
X239942D02*
X239066D01*
X238258Y69469D01*
X237639Y68850D01*
X237304Y68041D01*
Y67166D01*
X237639Y66358D01*
X238258Y65739D01*
X239066Y65404D01*
X239942D01*
X240750Y65739D01*
X241369Y66358D01*
X241704Y67166D01*
Y68041D01*
X241369Y68850D01*
X240750Y69469D01*
X239942Y69804D01*
D02*
G37*
G36*
X233249D02*
X232373D01*
X231565Y69469D01*
X230946Y68850D01*
X230611Y68041D01*
Y67166D01*
X230946Y66358D01*
X231565Y65739D01*
X232373Y65404D01*
X233249D01*
X234057Y65739D01*
X234676Y66358D01*
X235011Y67166D01*
Y68041D01*
X234676Y68850D01*
X234057Y69469D01*
X233249Y69804D01*
D02*
G37*
G36*
X226556D02*
X225680D01*
X224872Y69469D01*
X224253Y68850D01*
X223918Y68041D01*
Y67166D01*
X224253Y66358D01*
X224872Y65739D01*
X225680Y65404D01*
X226556D01*
X227364Y65739D01*
X227983Y66358D01*
X228318Y67166D01*
Y68041D01*
X227983Y68850D01*
X227364Y69469D01*
X226556Y69804D01*
D02*
G37*
G36*
X219863D02*
X218988D01*
X218179Y69469D01*
X217560Y68850D01*
X217225Y68041D01*
Y67166D01*
X217560Y66358D01*
X218179Y65739D01*
X218988Y65404D01*
X219863D01*
X220671Y65739D01*
X221290Y66358D01*
X221625Y67166D01*
Y68041D01*
X221290Y68850D01*
X220671Y69469D01*
X219863Y69804D01*
D02*
G37*
G36*
X154438Y61700D02*
X153562D01*
X152754Y61365D01*
X152135Y60746D01*
X151800Y59938D01*
Y59062D01*
X152135Y58254D01*
X152754Y57635D01*
X153562Y57300D01*
X154438D01*
X155246Y57635D01*
X155865Y58254D01*
X156200Y59062D01*
Y59938D01*
X155865Y60746D01*
X155246Y61365D01*
X154438Y61700D01*
D02*
G37*
G36*
X62438Y58200D02*
X61562D01*
X60754Y57865D01*
X60135Y57246D01*
X59800Y56438D01*
Y55562D01*
X60135Y54754D01*
X60754Y54135D01*
X61562Y53800D01*
X62438D01*
X63246Y54135D01*
X63865Y54754D01*
X64200Y55562D01*
Y56438D01*
X63865Y57246D01*
X63246Y57865D01*
X62438Y58200D01*
D02*
G37*
G36*
X175938Y55700D02*
X175062D01*
X174254Y55365D01*
X173635Y54746D01*
X173300Y53938D01*
Y53062D01*
X173635Y52254D01*
X174254Y51635D01*
X175062Y51300D01*
X175938D01*
X176746Y51635D01*
X177365Y52254D01*
X177700Y53062D01*
Y53938D01*
X177365Y54746D01*
X176746Y55365D01*
X175938Y55700D01*
D02*
G37*
G36*
X205498Y53300D02*
X204702D01*
X203967Y52996D01*
X203404Y52433D01*
X203100Y51698D01*
Y50902D01*
X203404Y50167D01*
X203967Y49604D01*
X204702Y49300D01*
X205498D01*
X206233Y49604D01*
X206796Y50167D01*
X207100Y50902D01*
Y51698D01*
X206796Y52433D01*
X206233Y52996D01*
X205498Y53300D01*
D02*
G37*
G36*
X192798Y53100D02*
X192002D01*
X191267Y52795D01*
X190705Y52233D01*
X190400Y51498D01*
Y50702D01*
X190705Y49967D01*
X191267Y49404D01*
X192002Y49100D01*
X192798D01*
X193533Y49404D01*
X194096Y49967D01*
X194400Y50702D01*
Y51498D01*
X194096Y52233D01*
X193533Y52795D01*
X192798Y53100D01*
D02*
G37*
G36*
X57938Y49700D02*
X57062D01*
X56254Y49365D01*
X55635Y48746D01*
X55300Y47938D01*
Y47062D01*
X55635Y46254D01*
X56254Y45635D01*
X57062Y45300D01*
X57938D01*
X58746Y45635D01*
X59365Y46254D01*
X59700Y47062D01*
Y47938D01*
X59365Y48746D01*
X58746Y49365D01*
X57938Y49700D01*
D02*
G37*
G36*
X205398Y46500D02*
X204602D01*
X203867Y46196D01*
X203305Y45633D01*
X203000Y44898D01*
Y44102D01*
X203305Y43367D01*
X203867Y42805D01*
X204602Y42500D01*
X205398D01*
X206133Y42805D01*
X206696Y43367D01*
X207000Y44102D01*
Y44898D01*
X206696Y45633D01*
X206133Y46196D01*
X205398Y46500D01*
D02*
G37*
G36*
X192798Y46300D02*
X192002D01*
X191267Y45996D01*
X190705Y45433D01*
X190400Y44698D01*
Y43902D01*
X190705Y43167D01*
X191267Y42605D01*
X192002Y42300D01*
X192798D01*
X193533Y42605D01*
X194096Y43167D01*
X194400Y43902D01*
Y44698D01*
X194096Y45433D01*
X193533Y45996D01*
X192798Y46300D01*
D02*
G37*
G36*
X38500Y58000D02*
X32500D01*
Y52000D01*
X32500Y52000D01*
X32662Y51000D01*
X32500Y50395D01*
Y49605D01*
X32704Y48842D01*
X33099Y48158D01*
X33585Y47500D01*
X33099Y46842D01*
X32704Y46158D01*
X32500Y45395D01*
Y44605D01*
X32704Y43842D01*
X33099Y43158D01*
X33658Y42599D01*
X34342Y42204D01*
X35105Y42000D01*
X35895D01*
X36658Y42204D01*
X37342Y42599D01*
X37901Y43158D01*
X38296Y43842D01*
X38500Y44605D01*
Y45395D01*
X38296Y46158D01*
X37901Y46842D01*
X37415Y47500D01*
X37901Y48158D01*
X38296Y48842D01*
X38500Y49605D01*
Y50395D01*
X38338Y51000D01*
X38500Y52000D01*
X38500D01*
Y58000D01*
D02*
G37*
G36*
X182838Y40900D02*
X181962D01*
X181154Y40565D01*
X180535Y39946D01*
X180200Y39138D01*
Y38262D01*
X180535Y37454D01*
X181154Y36835D01*
X181962Y36500D01*
X182838D01*
X183646Y36835D01*
X184265Y37454D01*
X184600Y38262D01*
Y39138D01*
X184265Y39946D01*
X183646Y40565D01*
X182838Y40900D01*
D02*
G37*
G36*
X200438Y40700D02*
X199562D01*
X198754Y40365D01*
X198135Y39746D01*
X197800Y38938D01*
Y38062D01*
X198135Y37254D01*
X198754Y36635D01*
X199562Y36300D01*
X200438D01*
X201246Y36635D01*
X201865Y37254D01*
X202200Y38062D01*
Y38938D01*
X201865Y39746D01*
X201246Y40365D01*
X200438Y40700D01*
D02*
G37*
G36*
X194438D02*
X193562D01*
X192754Y40365D01*
X192135Y39746D01*
X191800Y38938D01*
Y38062D01*
X192135Y37254D01*
X192754Y36635D01*
X193562Y36300D01*
X194438D01*
X195246Y36635D01*
X195865Y37254D01*
X196200Y38062D01*
Y38938D01*
X195865Y39746D01*
X195246Y40365D01*
X194438Y40700D01*
D02*
G37*
G36*
X188438D02*
X187562D01*
X186754Y40365D01*
X186135Y39746D01*
X185800Y38938D01*
Y38062D01*
X186135Y37254D01*
X186754Y36635D01*
X187562Y36300D01*
X188438D01*
X189246Y36635D01*
X189865Y37254D01*
X190200Y38062D01*
Y38938D01*
X189865Y39746D01*
X189246Y40365D01*
X188438Y40700D01*
D02*
G37*
G36*
X81698Y33000D02*
X80902D01*
X80167Y32695D01*
X79700Y32228D01*
X79233Y32695D01*
X78498Y33000D01*
X77702D01*
X76967Y32695D01*
X76405Y32133D01*
X76100Y31398D01*
Y30602D01*
X76405Y29867D01*
X76967Y29305D01*
X77702Y29000D01*
X78498D01*
X79233Y29305D01*
X79700Y29772D01*
X80167Y29305D01*
X80902Y29000D01*
X81698D01*
X82433Y29305D01*
X82995Y29867D01*
X83300Y30602D01*
Y31398D01*
X82995Y32133D01*
X82433Y32695D01*
X81698Y33000D01*
D02*
G37*
G36*
X201438Y32200D02*
X200562D01*
X199754Y31865D01*
X199356Y31467D01*
X198750Y31332D01*
X198144Y31467D01*
X197746Y31865D01*
X196938Y32200D01*
X196062D01*
X195254Y31865D01*
X194635Y31246D01*
X194300Y30438D01*
Y29562D01*
X194635Y28754D01*
X195254Y28135D01*
X196062Y27800D01*
X196938D01*
X197746Y28135D01*
X198144Y28533D01*
X198750Y28668D01*
X199356Y28533D01*
X199754Y28135D01*
X200562Y27800D01*
X201438D01*
X202246Y28135D01*
X202865Y28754D01*
X203200Y29562D01*
Y30438D01*
X202865Y31246D01*
X202246Y31865D01*
X201438Y32200D01*
D02*
G37*
G36*
X243288Y34596D02*
X242413D01*
X241604Y34261D01*
X240985Y33642D01*
X240650Y32834D01*
Y31958D01*
X240985Y31150D01*
X241604Y30531D01*
X242413Y30196D01*
X243288D01*
X244097Y30531D01*
X244715Y31150D01*
X245050Y31958D01*
Y32834D01*
X244715Y33642D01*
X244097Y34261D01*
X243288Y34596D01*
D02*
G37*
G36*
X236595D02*
X235720D01*
X234911Y34261D01*
X234292Y33642D01*
X233958Y32834D01*
Y31958D01*
X234292Y31150D01*
X234911Y30531D01*
X235720Y30196D01*
X236595D01*
X237404Y30531D01*
X238023Y31150D01*
X238357Y31958D01*
Y32834D01*
X238023Y33642D01*
X237404Y34261D01*
X236595Y34596D01*
D02*
G37*
G36*
X229902D02*
X229027D01*
X228218Y34261D01*
X227600Y33642D01*
X227265Y32834D01*
Y31958D01*
X227600Y31150D01*
X228218Y30531D01*
X229027Y30196D01*
X229902D01*
X230711Y30531D01*
X231330Y31150D01*
X231665Y31958D01*
Y32834D01*
X231330Y33642D01*
X230711Y34261D01*
X229902Y34596D01*
D02*
G37*
G36*
X223209D02*
X222334D01*
X221526Y34261D01*
X220907Y33642D01*
X220572Y32834D01*
Y31958D01*
X220907Y31150D01*
X221526Y30531D01*
X222334Y30196D01*
X223209D01*
X224018Y30531D01*
X224637Y31150D01*
X224972Y31958D01*
Y32834D01*
X224637Y33642D01*
X224018Y34261D01*
X223209Y34596D01*
D02*
G37*
G36*
X216516D02*
X215641D01*
X214832Y34261D01*
X214214Y33642D01*
X213879Y32834D01*
Y31958D01*
X214214Y31150D01*
X214832Y30531D01*
X215641Y30196D01*
X216516D01*
X217325Y30531D01*
X217944Y31150D01*
X218279Y31958D01*
Y32834D01*
X217944Y33642D01*
X217325Y34261D01*
X216516Y34596D01*
D02*
G37*
G36*
X246635Y29157D02*
X245759D01*
X244951Y28822D01*
X244332Y28203D01*
X243997Y27394D01*
Y26519D01*
X244332Y25710D01*
X244951Y25092D01*
X245759Y24757D01*
X246635D01*
X247443Y25092D01*
X248062Y25710D01*
X248397Y26519D01*
Y27394D01*
X248062Y28203D01*
X247443Y28822D01*
X246635Y29157D01*
D02*
G37*
G36*
X239942D02*
X239066D01*
X238258Y28822D01*
X237639Y28203D01*
X237304Y27394D01*
Y26519D01*
X237639Y25710D01*
X238258Y25092D01*
X239066Y24757D01*
X239942D01*
X240750Y25092D01*
X241369Y25710D01*
X241704Y26519D01*
Y27394D01*
X241369Y28203D01*
X240750Y28822D01*
X239942Y29157D01*
D02*
G37*
G36*
X233249D02*
X232373D01*
X231565Y28822D01*
X230946Y28203D01*
X230611Y27394D01*
Y26519D01*
X230946Y25710D01*
X231565Y25092D01*
X232373Y24757D01*
X233249D01*
X234057Y25092D01*
X234676Y25710D01*
X235011Y26519D01*
Y27394D01*
X234676Y28203D01*
X234057Y28822D01*
X233249Y29157D01*
D02*
G37*
G36*
X226556D02*
X225680D01*
X224872Y28822D01*
X224253Y28203D01*
X223918Y27394D01*
Y26519D01*
X224253Y25710D01*
X224872Y25092D01*
X225680Y24757D01*
X226556D01*
X227364Y25092D01*
X227983Y25710D01*
X228318Y26519D01*
Y27394D01*
X227983Y28203D01*
X227364Y28822D01*
X226556Y29157D01*
D02*
G37*
G36*
X219863D02*
X218988D01*
X218179Y28822D01*
X217560Y28203D01*
X217225Y27394D01*
Y26519D01*
X217560Y25710D01*
X218179Y25092D01*
X218988Y24757D01*
X219863D01*
X220671Y25092D01*
X221290Y25710D01*
X221625Y26519D01*
Y27394D01*
X221290Y28203D01*
X220671Y28822D01*
X219863Y29157D01*
D02*
G37*
G36*
X41898Y24398D02*
X41102D01*
X40367Y24094D01*
X39805Y23531D01*
X39500Y22796D01*
Y22001D01*
X39805Y21266D01*
X40272Y20798D01*
X39805Y20331D01*
X39500Y19596D01*
Y18801D01*
X39805Y18066D01*
X40367Y17503D01*
X41102Y17199D01*
X41898D01*
X42633Y17503D01*
X43196Y18066D01*
X43500Y18801D01*
Y19596D01*
X43196Y20331D01*
X42728Y20798D01*
X43196Y21266D01*
X43500Y22001D01*
Y22796D01*
X43196Y23531D01*
X42633Y24094D01*
X41898Y24398D01*
D02*
G37*
G36*
X260438Y84200D02*
X259562D01*
X258754Y83865D01*
X258135Y83246D01*
X257800Y82438D01*
Y81562D01*
X258135Y80754D01*
X258754Y80135D01*
X259562Y79800D01*
X260438D01*
X261246Y80135D01*
X261865Y80754D01*
X262200Y81562D01*
Y82438D01*
X261865Y83246D01*
X261246Y83865D01*
X260438Y84200D01*
D02*
G37*
G36*
X166438Y81200D02*
X165562D01*
X164754Y80865D01*
X164135Y80246D01*
X163800Y79438D01*
Y78562D01*
X164135Y77754D01*
X164754Y77135D01*
X165562Y76800D01*
X166438D01*
X167246Y77135D01*
X167865Y77754D01*
X168200Y78562D01*
Y79438D01*
X167865Y80246D01*
X167246Y80865D01*
X166438Y81200D01*
D02*
G37*
G36*
X156087Y80958D02*
X155212D01*
X154403Y80623D01*
X153785Y80004D01*
X153450Y79195D01*
Y78320D01*
X153785Y77512D01*
X154403Y76893D01*
X155212Y76558D01*
X156087D01*
X156896Y76893D01*
X157515Y77512D01*
X157850Y78320D01*
Y79195D01*
X157515Y80004D01*
X156896Y80623D01*
X156087Y80958D01*
D02*
G37*
G36*
X263079Y75523D02*
X262204D01*
X261395Y75188D01*
X261070Y74863D01*
X260931Y75002D01*
X260123Y75337D01*
X259247D01*
X258439Y75002D01*
X257820Y74384D01*
X257485Y73575D01*
Y72700D01*
X257820Y71891D01*
X258439Y71272D01*
X259247Y70937D01*
X259576D01*
X260267Y70520D01*
X260441Y70013D01*
Y69539D01*
X260776Y68730D01*
X261203Y68303D01*
X260776Y67876D01*
X260441Y67067D01*
Y66192D01*
X260776Y65384D01*
X261203Y64957D01*
X260776Y64530D01*
X260441Y63721D01*
Y62846D01*
X260776Y62037D01*
X261203Y61610D01*
X260776Y61183D01*
X260441Y60375D01*
Y59499D01*
X260776Y58691D01*
X261203Y58264D01*
X260776Y57837D01*
X260441Y57028D01*
Y56153D01*
X260776Y55344D01*
X261203Y54917D01*
X260776Y54490D01*
X260441Y53682D01*
Y52807D01*
X260776Y51998D01*
X261203Y51571D01*
X260776Y51144D01*
X260441Y50335D01*
Y49460D01*
X260776Y48651D01*
X261203Y48224D01*
X260776Y47797D01*
X260441Y46989D01*
Y46113D01*
X260776Y45305D01*
X261203Y44878D01*
X260776Y44451D01*
X260441Y43642D01*
Y42767D01*
X260776Y41958D01*
X261203Y41532D01*
X260776Y41105D01*
X260441Y40296D01*
Y39421D01*
X260776Y38612D01*
X261203Y38185D01*
X260776Y37758D01*
X260441Y36949D01*
Y36074D01*
X260776Y35266D01*
X261203Y34839D01*
X260776Y34411D01*
X260441Y33603D01*
Y32728D01*
X260776Y31919D01*
X261203Y31492D01*
X260776Y31065D01*
X260441Y30257D01*
Y29381D01*
X260776Y28573D01*
X261203Y28146D01*
X260776Y27719D01*
X260441Y26910D01*
Y26035D01*
X260776Y25226D01*
X261395Y24607D01*
X262204Y24272D01*
X263079D01*
X263888Y24607D01*
X264506Y25226D01*
X264841Y26035D01*
Y26910D01*
X264506Y27719D01*
X264079Y28146D01*
X264506Y28573D01*
X264841Y29381D01*
Y30257D01*
X264506Y31065D01*
X264079Y31492D01*
X264506Y31919D01*
X264841Y32728D01*
Y33603D01*
X264506Y34411D01*
X264079Y34839D01*
X264506Y35266D01*
X264841Y36074D01*
Y36949D01*
X264506Y37758D01*
X264079Y38185D01*
X264506Y38612D01*
X264841Y39421D01*
Y40296D01*
X264506Y41105D01*
X264079Y41532D01*
X264506Y41958D01*
X264841Y42767D01*
Y43642D01*
X264506Y44451D01*
X264079Y44878D01*
X264506Y45305D01*
X264841Y46113D01*
Y46989D01*
X264506Y47797D01*
X264079Y48224D01*
X264506Y48651D01*
X264841Y49460D01*
Y50335D01*
X264506Y51144D01*
X264079Y51571D01*
X264506Y51998D01*
X264841Y52807D01*
Y53682D01*
X264506Y54490D01*
X264079Y54917D01*
X264506Y55344D01*
X264841Y56153D01*
Y57028D01*
X264506Y57837D01*
X264079Y58264D01*
X264506Y58691D01*
X264841Y59499D01*
Y60375D01*
X264506Y61183D01*
X264079Y61610D01*
X264506Y62037D01*
X264841Y62846D01*
Y63721D01*
X264506Y64530D01*
X264079Y64957D01*
X264506Y65384D01*
X264841Y66192D01*
Y67067D01*
X264506Y67876D01*
X264079Y68303D01*
X264506Y68730D01*
X264841Y69539D01*
Y70414D01*
X264506Y71223D01*
X264079Y71650D01*
X264506Y72077D01*
X264841Y72885D01*
Y73760D01*
X264506Y74569D01*
X263888Y75188D01*
X263079Y75523D01*
D02*
G37*
G36*
X139938Y79200D02*
X139062D01*
X138254Y78865D01*
X137635Y78246D01*
X137300Y77438D01*
Y76562D01*
X137635Y75754D01*
X138254Y75135D01*
X139062Y74800D01*
X139938D01*
X140746Y75135D01*
X141365Y75754D01*
X141700Y76562D01*
Y77438D01*
X141365Y78246D01*
X140746Y78865D01*
X139938Y79200D01*
D02*
G37*
%LPD*%
G36*
X260669Y83001D02*
X261001Y82669D01*
X261180Y82235D01*
Y81765D01*
X261001Y81331D01*
X260669Y80999D01*
X260235Y80820D01*
X259765D01*
X259331Y80999D01*
X258999Y81331D01*
X258820Y81765D01*
Y82235D01*
X258999Y82669D01*
X259331Y83001D01*
X259765Y83180D01*
X260235D01*
X260669Y83001D01*
D02*
G37*
G36*
X156318Y79759D02*
X156650Y79426D01*
X156830Y78993D01*
Y78523D01*
X156650Y78089D01*
X156318Y77757D01*
X155884Y77577D01*
X155415D01*
X154981Y77757D01*
X154649Y78089D01*
X154469Y78523D01*
Y78993D01*
X154649Y79426D01*
X154981Y79759D01*
X155415Y79938D01*
X155884D01*
X156318Y79759D01*
D02*
G37*
G36*
X263310Y74323D02*
X263642Y73992D01*
X263822Y73558D01*
Y73088D01*
X263642Y72654D01*
X263358Y72371D01*
X263137Y72040D01*
X263060Y71650D01*
X263137Y71259D01*
X263358Y70929D01*
X263642Y70645D01*
X263822Y70211D01*
Y69742D01*
X263642Y69308D01*
X263358Y69024D01*
X263159Y68725D01*
X262960Y68693D01*
X262323D01*
X262124Y68725D01*
X261924Y69024D01*
X261641Y69308D01*
X261461Y69742D01*
Y70013D01*
X261428Y70179D01*
X261405Y70346D01*
X261231Y70852D01*
X261153Y70985D01*
X261088Y71124D01*
X261054Y71155D01*
X261030Y71196D01*
X260908Y71289D01*
X260794Y71392D01*
X260103Y71810D01*
X260031Y71836D01*
X259966Y71879D01*
X259845Y71903D01*
X259729Y71945D01*
X259652Y71942D01*
X259576Y71957D01*
X259450D01*
X259016Y72137D01*
X258684Y72469D01*
X258524Y72855D01*
Y73419D01*
X258684Y73806D01*
X259016Y74138D01*
X259450Y74318D01*
X259920D01*
X260359Y74136D01*
X260680Y73921D01*
X261070Y73844D01*
X261461Y73921D01*
X261791Y74142D01*
X261973Y74323D01*
X262407Y74503D01*
X262876D01*
X263310Y74323D01*
D02*
G37*
G36*
X263159Y67881D02*
X263358Y67582D01*
X263642Y67299D01*
X263822Y66865D01*
Y66395D01*
X263642Y65961D01*
X263358Y65678D01*
X263159Y65378D01*
X262960Y65347D01*
X262322D01*
X262124Y65378D01*
X261924Y65678D01*
X261641Y65961D01*
X261461Y66395D01*
Y66865D01*
X261641Y67299D01*
X261924Y67582D01*
X262124Y67881D01*
X262323Y67913D01*
X262960D01*
X263159Y67881D01*
D02*
G37*
G36*
Y64535D02*
X263358Y64236D01*
X263358Y64236D01*
X263642Y63952D01*
X263822Y63518D01*
Y63049D01*
X263642Y62615D01*
X263358Y62331D01*
X263159Y62032D01*
X262960Y62000D01*
X262323D01*
X262124Y62032D01*
X261924Y62331D01*
X261641Y62615D01*
X261461Y63049D01*
Y63518D01*
X261641Y63952D01*
X261924Y64236D01*
X262124Y64535D01*
X262322Y64566D01*
X262960D01*
X263159Y64535D01*
D02*
G37*
G36*
Y61188D02*
X263358Y60889D01*
X263642Y60606D01*
X263822Y60172D01*
Y59702D01*
X263642Y59268D01*
X263358Y58985D01*
X263159Y58686D01*
X262960Y58654D01*
X262323D01*
X262124Y58686D01*
X261924Y58985D01*
X261641Y59268D01*
X261461Y59702D01*
Y60172D01*
X261641Y60606D01*
X261924Y60889D01*
X262124Y61188D01*
X262323Y61220D01*
X262960D01*
X263159Y61188D01*
D02*
G37*
G36*
Y57842D02*
X263358Y57543D01*
X263642Y57259D01*
X263822Y56825D01*
Y56356D01*
X263642Y55922D01*
X263358Y55638D01*
X263159Y55339D01*
X262960Y55308D01*
X262322D01*
X262124Y55339D01*
X261924Y55638D01*
X261924Y55638D01*
X261641Y55922D01*
X261461Y56356D01*
Y56825D01*
X261641Y57259D01*
X261924Y57543D01*
X262124Y57842D01*
X262323Y57874D01*
X262960D01*
X263159Y57842D01*
D02*
G37*
G36*
Y54496D02*
X263358Y54196D01*
X263642Y53913D01*
X263822Y53479D01*
Y53009D01*
X263642Y52575D01*
X263358Y52292D01*
X263159Y51993D01*
X262960Y51961D01*
X262323D01*
X262124Y51993D01*
X261924Y52292D01*
X261641Y52575D01*
X261461Y53009D01*
Y53479D01*
X261641Y53913D01*
X261924Y54196D01*
X262124Y54496D01*
X262322Y54527D01*
X262960D01*
X263159Y54496D01*
D02*
G37*
G36*
Y51149D02*
X263358Y50850D01*
X263642Y50566D01*
X263822Y50132D01*
Y49663D01*
X263642Y49229D01*
X263358Y48945D01*
X263159Y48646D01*
X262960Y48615D01*
X262323D01*
X262124Y48646D01*
X261924Y48945D01*
X261641Y49229D01*
X261461Y49663D01*
Y50132D01*
X261641Y50566D01*
X261924Y50850D01*
X262124Y51149D01*
X262323Y51181D01*
X262960D01*
X263159Y51149D01*
D02*
G37*
G36*
Y47802D02*
X263358Y47503D01*
X263642Y47220D01*
X263822Y46786D01*
Y46316D01*
X263642Y45882D01*
X263358Y45599D01*
X263159Y45300D01*
X262960Y45268D01*
X262322D01*
X262124Y45300D01*
X261924Y45599D01*
X261641Y45882D01*
X261461Y46316D01*
Y46786D01*
X261641Y47220D01*
X261924Y47503D01*
X262124Y47802D01*
X262323Y47834D01*
X262960D01*
X263159Y47802D01*
D02*
G37*
G36*
Y44456D02*
X263358Y44157D01*
X263358Y44157D01*
X263642Y43873D01*
X263822Y43439D01*
Y42970D01*
X263642Y42536D01*
X263358Y42252D01*
X263159Y41953D01*
X262960Y41922D01*
X262323D01*
X262124Y41953D01*
X261924Y42252D01*
X261641Y42536D01*
X261461Y42970D01*
Y43439D01*
X261641Y43873D01*
X261924Y44157D01*
X262124Y44456D01*
X262322Y44488D01*
X262960D01*
X263159Y44456D01*
D02*
G37*
G36*
Y41110D02*
X263358Y40810D01*
X263642Y40527D01*
X263822Y40093D01*
Y39623D01*
X263642Y39190D01*
X263358Y38906D01*
X263159Y38607D01*
X262960Y38575D01*
X262323D01*
X262124Y38607D01*
X261924Y38906D01*
X261641Y39190D01*
X261461Y39623D01*
Y40093D01*
X261641Y40527D01*
X261924Y40810D01*
X262124Y41110D01*
X262323Y41141D01*
X262960D01*
X263159Y41110D01*
D02*
G37*
G36*
Y37763D02*
X263358Y37464D01*
X263642Y37180D01*
X263822Y36747D01*
Y36277D01*
X263642Y35843D01*
X263358Y35559D01*
X263159Y35260D01*
X262960Y35229D01*
X262322D01*
X262124Y35260D01*
X261924Y35559D01*
X261924Y35559D01*
X261641Y35843D01*
X261461Y36277D01*
Y36747D01*
X261641Y37180D01*
X261924Y37464D01*
X262124Y37763D01*
X262323Y37795D01*
X262960D01*
X263159Y37763D01*
D02*
G37*
G36*
Y34417D02*
X263358Y34118D01*
X263642Y33834D01*
X263822Y33400D01*
Y32930D01*
X263642Y32497D01*
X263358Y32213D01*
X263159Y31914D01*
X262960Y31882D01*
X262323D01*
X262124Y31914D01*
X261924Y32213D01*
X261641Y32497D01*
X261461Y32930D01*
Y33400D01*
X261641Y33834D01*
X261924Y34118D01*
X262124Y34417D01*
X262322Y34448D01*
X262960D01*
X263159Y34417D01*
D02*
G37*
G36*
Y31070D02*
X263358Y30771D01*
X263642Y30487D01*
X263822Y30054D01*
Y29584D01*
X263642Y29150D01*
X263358Y28867D01*
X263159Y28567D01*
X262960Y28536D01*
X262323D01*
X262124Y28567D01*
X261924Y28867D01*
X261641Y29150D01*
X261461Y29584D01*
Y30054D01*
X261641Y30487D01*
X261924Y30771D01*
X262124Y31070D01*
X262323Y31102D01*
X262960D01*
X263159Y31070D01*
D02*
G37*
G36*
Y27724D02*
X263358Y27425D01*
X263642Y27141D01*
X263822Y26707D01*
Y26238D01*
X263642Y25804D01*
X263310Y25472D01*
X262876Y25292D01*
X262407D01*
X262020Y25452D01*
X261621Y25851D01*
X261461Y26238D01*
Y26707D01*
X261641Y27141D01*
X261924Y27425D01*
X262124Y27724D01*
X262323Y27755D01*
X262960D01*
X263159Y27724D01*
D02*
G37*
G36*
X140169Y78001D02*
X140501Y77669D01*
X140680Y77235D01*
Y76765D01*
X140501Y76331D01*
X140169Y75999D01*
X139735Y75820D01*
X139265D01*
X138831Y75999D01*
X138499Y76331D01*
X138320Y76765D01*
Y77235D01*
X138499Y77669D01*
X138831Y78001D01*
X139265Y78180D01*
X139735D01*
X140169Y78001D01*
D02*
G37*
D53*
X22521Y95008D02*
D03*
Y60992D02*
D03*
Y39508D02*
D03*
Y5492D02*
D03*
D54*
X6772Y95008D02*
D03*
Y60992D02*
D03*
Y39508D02*
D03*
Y5492D02*
D03*
D61*
X253157Y84000D02*
X256485Y80672D01*
Y31037D02*
X259334Y28188D01*
X256485Y31037D02*
Y80672D01*
X264500Y5500D02*
Y20088D01*
X259334Y25254D02*
X264500Y20088D01*
X259334Y25254D02*
Y28188D01*
D62*
X250500Y89500D02*
X254500D01*
D67*
X264500Y94500D02*
D03*
Y5500D02*
D03*
D68*
X254500D02*
D03*
X44500Y94500D02*
D03*
X34500Y5500D02*
D03*
X64500D02*
D03*
X74500D02*
D03*
X234500Y94500D02*
D03*
X204500D02*
D03*
X134500D02*
D03*
X194500Y5500D02*
D03*
X104500D02*
D03*
X64500Y94500D02*
D03*
X164500D02*
D03*
Y5500D02*
D03*
X134500D02*
D03*
X54500D02*
D03*
X194500Y94500D02*
D03*
X94500D02*
D03*
X224500Y5500D02*
D03*
X114500D02*
D03*
X244500D02*
D03*
X224500Y94500D02*
D03*
X154500D02*
D03*
X124500D02*
D03*
X174500Y5500D02*
D03*
X84500D02*
D03*
X254500Y94500D02*
D03*
X184500D02*
D03*
X84500D02*
D03*
X234500Y5500D02*
D03*
X144500D02*
D03*
X214500Y94500D02*
D03*
X114500D02*
D03*
X214500Y5500D02*
D03*
X184500D02*
D03*
X144500Y94500D02*
D03*
X74500D02*
D03*
X154500Y5500D02*
D03*
X94500D02*
D03*
X174500Y94500D02*
D03*
X104500D02*
D03*
X204500Y5500D02*
D03*
X124500D02*
D03*
X44500D02*
D03*
X54500Y94500D02*
D03*
X244500D02*
D03*
X34500D02*
D03*
D69*
X142500Y50000D02*
D03*
X35500Y45000D02*
D03*
Y50000D02*
D03*
D70*
X137500D02*
D03*
D71*
X35500Y55000D02*
D03*
D72*
X242800Y46800D02*
D03*
X207400Y22200D02*
D03*
X162400Y13900D02*
D03*
X182600Y63300D02*
D03*
X175000Y62500D02*
D03*
X179400Y61800D02*
D03*
X49000Y20000D02*
D03*
X49500Y23000D02*
D03*
X95000Y83500D02*
D03*
X76000Y28500D02*
D03*
X83500D02*
D03*
X244000Y88900D02*
D03*
X260000Y82000D02*
D03*
X262641Y73323D02*
D03*
X259685Y73137D02*
D03*
X262641Y66630D02*
D03*
Y69976D02*
D03*
Y63283D02*
D03*
Y56590D02*
D03*
Y59937D02*
D03*
Y53244D02*
D03*
X155650Y78758D02*
D03*
X139500Y77000D02*
D03*
X239504Y61500D02*
D03*
X251004Y56496D02*
D03*
X242800Y53300D02*
D03*
X236300Y53200D02*
D03*
X205600Y74700D02*
D03*
X228004Y56496D02*
D03*
X208400Y51500D02*
D03*
X163500Y62000D02*
D03*
X262641Y46551D02*
D03*
Y49898D02*
D03*
Y43205D02*
D03*
Y29819D02*
D03*
Y36512D02*
D03*
Y39858D02*
D03*
Y33165D02*
D03*
X268500Y17000D02*
D03*
X262641Y26472D02*
D03*
X256134Y26863D02*
D03*
X252787D02*
D03*
X251004Y50000D02*
D03*
X236200Y46800D02*
D03*
X251004Y43504D02*
D03*
X228004Y50000D02*
D03*
X188500Y50500D02*
D03*
X111000Y45500D02*
D03*
X208400Y45100D02*
D03*
X228004Y43504D02*
D03*
X188500Y44000D02*
D03*
X157000Y41500D02*
D03*
X239504Y38500D02*
D03*
X169500Y19983D02*
D03*
X124000Y40500D02*
D03*
X111000Y39000D02*
D03*
Y32500D02*
D03*
X95328Y76672D02*
D03*
X73000Y75000D02*
D03*
Y79000D02*
D03*
X70000Y88000D02*
D03*
X69000Y79000D02*
D03*
Y75000D02*
D03*
X93500Y61500D02*
D03*
X94000Y56500D02*
D03*
X80000Y59000D02*
D03*
X72500Y65500D02*
D03*
X47000Y89500D02*
D03*
X45500Y82500D02*
D03*
X37000Y86000D02*
D03*
X28451Y90549D02*
D03*
X45828Y71672D02*
D03*
X50000Y70500D02*
D03*
X36500Y72720D02*
D03*
X46268Y62500D02*
D03*
X28500Y63000D02*
D03*
X29000Y59500D02*
D03*
X107500Y45500D02*
D03*
X104000D02*
D03*
X100500Y39000D02*
D03*
Y45500D02*
D03*
X97000D02*
D03*
Y39000D02*
D03*
X107500D02*
D03*
X104000D02*
D03*
Y32500D02*
D03*
X97000D02*
D03*
X100500D02*
D03*
X79500Y55500D02*
D03*
X67500Y54000D02*
D03*
X107500Y32500D02*
D03*
X60500Y29000D02*
D03*
X57000D02*
D03*
X53500D02*
D03*
X49500Y33500D02*
D03*
X39000Y25000D02*
D03*
X31500Y43000D02*
D03*
X29500Y39000D02*
D03*
X39000Y15500D02*
D03*
X30216Y11079D02*
D03*
X78100Y31000D02*
D03*
X81300D02*
D03*
X192400Y51100D02*
D03*
Y44300D02*
D03*
X249543Y73043D02*
D03*
X239504Y67604D02*
D03*
X216200Y72200D02*
D03*
X239504Y26957D02*
D03*
X196500Y30000D02*
D03*
X175500Y53500D02*
D03*
X226118Y67604D02*
D03*
X229465Y32396D02*
D03*
X219425Y26957D02*
D03*
X188000Y38500D02*
D03*
X236157Y73043D02*
D03*
X249543Y32396D02*
D03*
X201000Y30000D02*
D03*
X147500Y51500D02*
D03*
X246197Y67604D02*
D03*
X166000Y79000D02*
D03*
X222772Y73043D02*
D03*
X195500Y73000D02*
D03*
X232811Y26957D02*
D03*
X194000Y38500D02*
D03*
X80000Y49500D02*
D03*
X250500Y89500D02*
D03*
X254500D02*
D03*
X181000Y74000D02*
D03*
X232811Y67604D02*
D03*
X222772Y32396D02*
D03*
X242850Y73043D02*
D03*
X189500Y70000D02*
D03*
X246197Y26957D02*
D03*
X236157Y32396D02*
D03*
X219425Y67604D02*
D03*
X170500Y59500D02*
D03*
X226118Y26957D02*
D03*
X200000Y38500D02*
D03*
X229465Y73043D02*
D03*
X192232Y66732D02*
D03*
X242850Y32396D02*
D03*
X216079D02*
D03*
X182400Y38700D02*
D03*
X205000Y44500D02*
D03*
X205100Y51300D02*
D03*
X143500Y62000D02*
D03*
X56000Y15000D02*
D03*
X53000D02*
D03*
X49500D02*
D03*
X82500Y85000D02*
D03*
X62000Y56000D02*
D03*
X57500Y47500D02*
D03*
X77000Y88500D02*
D03*
X154000Y59500D02*
D03*
X87500Y71500D02*
D03*
X36933Y77220D02*
D03*
X49500Y76000D02*
D03*
Y81000D02*
D03*
X32000Y79779D02*
D03*
X41500Y22399D02*
D03*
Y19198D02*
D03*
D73*
X127800Y23300D02*
X133176Y28676D01*
Y39176D01*
X64300Y23300D02*
X127800D01*
D74*
X133176Y39176D02*
X137500Y43500D01*
X49500Y15000D02*
X53000D01*
X191000Y84000D02*
X253157D01*
X246954Y83000D02*
X252157D01*
X179000Y72000D02*
X181000Y74000D01*
X191000Y84000D01*
X252157Y83000D02*
X254500Y85343D01*
Y89500D01*
X115100Y72000D02*
X139000D01*
X95000Y83500D02*
X103600D01*
X115100Y72000D01*
X88000Y83500D02*
X95000D01*
X83000Y78500D02*
X88000Y83500D01*
X83000Y63000D02*
Y78500D01*
Y63000D02*
X84200Y61800D01*
X80000Y49500D02*
X84200Y53700D01*
Y61800D01*
X254500Y89500D02*
Y94500D01*
X139000Y58397D02*
Y72000D01*
Y58397D02*
X142500Y54897D01*
Y50000D02*
Y54897D01*
X139000Y72000D02*
X179000D01*
X137500Y43500D02*
Y50000D01*
X56000Y15000D02*
X64300Y23300D01*
X53000Y15000D02*
X56000D01*
M02*
