G04*
G04 #@! TF.GenerationSoftware,Altium Limited,Altium Designer,25.8.1 (18)*
G04*
G04 Layer_Color=32896*
%FSLAX25Y25*%
%MOIN*%
G70*
G04*
G04 #@! TF.SameCoordinates,507DAA70-145D-422E-80CD-167F3C6471A6*
G04*
G04*
G04 #@! TF.FilePolarity,Positive*
G04*
G01*
G75*
%ADD11C,0.00600*%
%ADD58C,0.01000*%
%ADD80C,0.00800*%
D11*
X123907Y69945D02*
X122241D01*
X121408D02*
X119742D01*
X143901Y65089D02*
X142235D01*
X140569Y65505D02*
X141402Y66338D01*
Y67172D01*
X140569Y68005D01*
X137653Y65505D02*
X139319Y67172D01*
X126823Y68005D02*
Y65505D01*
X124324Y66338D02*
Y66755D01*
X124740D01*
Y66338D01*
X124324D01*
X123907Y66755D01*
Y67588D01*
X124324Y68005D01*
X125157D01*
X125573Y67588D01*
Y65922D01*
X125157Y65505D01*
X123907D01*
X121825Y66338D02*
Y66755D01*
X122241D01*
Y66338D01*
X121825D01*
X121408Y66755D01*
Y67588D01*
X121825Y68005D01*
X122658D01*
X123074Y67588D01*
Y65922D01*
X122658Y65505D01*
X121408D01*
X120575Y68005D02*
Y65505D01*
X145567Y60650D02*
X146400Y61483D01*
Y62316D01*
X145567Y63149D01*
X144317Y60233D02*
X142651D01*
X141818D02*
X140152D01*
X139319Y60650D02*
X137653Y62316D01*
X135154Y60650D02*
X136820Y62316D01*
X134321Y60233D02*
X132654D01*
X131821D02*
X130155D01*
X125157Y60650D02*
X126823Y62316D01*
X124324Y61900D02*
X122658D01*
X121825D02*
X120159D01*
X119325Y60650D02*
X117659Y62316D01*
X116826Y60233D02*
X115160D01*
X114327D02*
X112661D01*
X137236Y55794D02*
X138902Y57460D01*
X136403Y55378D02*
X134737D01*
X133904D02*
X132238D01*
X131405D02*
X129739D01*
X128906Y58293D02*
Y55794D01*
X127656Y57044D02*
X125990D01*
X125157D02*
X123491D01*
X122658D02*
X120992D01*
X120159D02*
X118492D01*
X117659Y58293D02*
Y55794D01*
X111411Y58293D02*
Y55794D01*
X100165Y55378D02*
X98499D01*
X97666D02*
X96000D01*
X127240Y50939D02*
X128906Y52605D01*
X123907Y53438D02*
X123491D01*
X123074Y53021D01*
Y52605D01*
X122658Y52188D01*
X123074Y51772D01*
Y51355D01*
X123491Y50939D01*
X123907D01*
X120159Y53438D02*
X120575D01*
X120992Y53021D01*
Y52605D01*
X121408Y52188D01*
X120992Y51772D01*
Y51355D01*
X120575Y50939D01*
X120159D01*
X116410D02*
X114744Y52605D01*
X112244Y50939D02*
X113910Y52605D01*
X108912Y50939D02*
X108079Y51772D01*
Y52605D01*
X108912Y53438D01*
X106830Y50522D02*
X105163D01*
X101831Y50939D02*
X100165Y52605D01*
X96833Y50522D02*
X95167D01*
X92667Y50939D02*
X94333Y52605D01*
X128906Y46083D02*
X127240Y47749D01*
X124740Y46083D02*
X126407Y47749D01*
X123907Y45667D02*
X122241D01*
X121408D02*
X119742D01*
X118909Y46083D02*
X117243Y47749D01*
X114744Y46083D02*
X116410Y47749D01*
X109745Y46083D02*
X111411Y47749D01*
X108912Y45667D02*
X107246D01*
X106413D02*
X104747D01*
X102664Y48582D02*
X103497D01*
X103914Y48166D01*
Y46500D01*
X103497Y46083D01*
X102664D01*
X102248Y46500D01*
Y48166D01*
X102664Y48582D01*
X98082Y46083D02*
X98915Y46916D01*
Y47749D01*
X98082Y48582D01*
X96833Y45667D02*
X95167D01*
X94333D02*
X92667D01*
X130572Y41228D02*
X131405Y42061D01*
Y42894D01*
X130572Y43727D01*
X129322Y42477D02*
X127656D01*
X126823D02*
X125157D01*
X124324Y41228D02*
X122658Y42894D01*
X120159Y41228D02*
X121825Y42894D01*
X119325Y42477D02*
X117659D01*
X116826D02*
X115160D01*
X114327Y41228D02*
X113494Y42061D01*
Y42894D01*
X114327Y43727D01*
X100582Y41228D02*
X102248Y42894D01*
X99748Y40811D02*
X98082D01*
X97249D02*
X95583D01*
X94750Y41228D02*
X93084Y42894D01*
X131405Y35956D02*
X129739D01*
X128906Y36372D02*
X128073Y37205D01*
Y38038D01*
X128906Y38871D01*
X125990Y36372D02*
X126823Y37205D01*
Y38038D01*
X125990Y38871D01*
X119742Y36372D02*
X118909Y37205D01*
Y38038D01*
X119742Y38871D01*
X116826Y36372D02*
X117659Y37205D01*
Y38038D01*
X116826Y38871D01*
X115577Y35956D02*
X113910D01*
X133904Y33183D02*
X133071Y32350D01*
X131405D02*
X129739D01*
X128906D02*
X127240D01*
X126407D02*
X124740D01*
X123491Y34016D02*
Y33183D01*
X123907Y32766D01*
X121825Y34016D02*
Y33183D01*
X122241Y32766D01*
X120575Y32350D02*
X118909D01*
X118076D02*
X116410D01*
X115577D02*
X113910D01*
X113077Y33183D02*
X112244Y32350D01*
X266400Y72901D02*
X264401Y74900D01*
X262401Y72901D01*
X264401Y70901D02*
Y68235D01*
Y66903D02*
Y64237D01*
Y62904D02*
Y60238D01*
X266400Y58905D02*
X262401D01*
Y56906D01*
X263068Y56239D01*
X264401D01*
X265067Y56906D01*
Y58905D01*
X262401Y54906D02*
Y53574D01*
Y54240D01*
X266400D01*
Y54906D01*
Y53574D01*
Y51574D02*
X262401D01*
X266400Y48908D01*
X262401D01*
X266400Y47576D02*
Y46243D01*
Y46909D01*
X262401D01*
X263068Y47576D01*
X264401Y44243D02*
Y41577D01*
Y40244D02*
Y37579D01*
Y36246D02*
Y33580D01*
X266400Y32247D02*
X264401Y30248D01*
X262401Y32247D01*
X102401Y27400D02*
Y26067D01*
Y26734D01*
X106400D01*
Y27400D01*
Y26067D01*
X102401Y22068D02*
Y23401D01*
X103068Y24068D01*
X105734D01*
X106400Y23401D01*
Y22068D01*
X105734Y21402D01*
X103068D01*
X102401Y22068D01*
X103068Y20069D02*
X102401Y19403D01*
Y18070D01*
X103068Y17403D01*
X103734D01*
X104401Y18070D01*
Y18736D01*
Y18070D01*
X105067Y17403D01*
X105734D01*
X106400Y18070D01*
Y19403D01*
X105734Y20069D01*
X103068Y16070D02*
X102401Y15404D01*
Y14071D01*
X103068Y13405D01*
X103734D01*
X104401Y14071D01*
Y14737D01*
Y14071D01*
X105067Y13405D01*
X105734D01*
X106400Y14071D01*
Y15404D01*
X105734Y16070D01*
X72401Y27400D02*
X75734D01*
X76400Y26734D01*
Y25401D01*
X75734Y24734D01*
X72401D01*
X73068Y20735D02*
X72401Y21402D01*
Y22735D01*
X73068Y23401D01*
X73734D01*
X74401Y22735D01*
Y21402D01*
X75067Y20735D01*
X75734D01*
X76400Y21402D01*
Y22735D01*
X75734Y23401D01*
X72401Y19403D02*
X76400D01*
Y17403D01*
X75734Y16737D01*
X75067D01*
X74401Y17403D01*
Y19403D01*
Y17403D01*
X73734Y16737D01*
X73068D01*
X72401Y17403D01*
Y19403D01*
X74401Y15404D02*
Y12738D01*
X73068Y14071D02*
X75734D01*
X82401Y27400D02*
Y26067D01*
Y26734D01*
X86400D01*
Y27400D01*
Y26067D01*
X82401Y22068D02*
Y23401D01*
X83068Y24068D01*
X85734D01*
X86400Y23401D01*
Y22068D01*
X85734Y21402D01*
X83068D01*
X82401Y22068D01*
X86400Y17403D02*
Y20069D01*
X83734Y17403D01*
X83068D01*
X82401Y18070D01*
Y19403D01*
X83068Y20069D01*
X86400Y16070D02*
Y14737D01*
Y15404D01*
X82401D01*
X83068Y16070D01*
X92401Y27400D02*
Y26067D01*
Y26734D01*
X96400D01*
Y27400D01*
Y26067D01*
X92401Y22068D02*
Y23401D01*
X93068Y24068D01*
X95734D01*
X96400Y23401D01*
Y22068D01*
X95734Y21402D01*
X93068D01*
X92401Y22068D01*
X96400Y17403D02*
Y20069D01*
X93734Y17403D01*
X93068D01*
X92401Y18070D01*
Y19403D01*
X93068Y20069D01*
X92401Y13405D02*
X93068Y14737D01*
X94401Y16070D01*
X95734D01*
X96400Y15404D01*
Y14071D01*
X95734Y13405D01*
X95067D01*
X94401Y14071D01*
Y16070D01*
X62401Y27400D02*
X65734D01*
X66400Y26734D01*
Y25401D01*
X65734Y24734D01*
X62401D01*
X63068Y20735D02*
X62401Y21402D01*
Y22735D01*
X63068Y23401D01*
X63734D01*
X64401Y22735D01*
Y21402D01*
X65067Y20735D01*
X65734D01*
X66400Y21402D01*
Y22735D01*
X65734Y23401D01*
X62401Y19403D02*
X66400D01*
Y17403D01*
X65734Y16737D01*
X65067D01*
X64401Y17403D01*
Y19403D01*
Y17403D01*
X63734Y16737D01*
X63068D01*
X62401Y17403D01*
Y19403D01*
X64401Y15404D02*
Y12738D01*
X52401Y27400D02*
Y26067D01*
Y26734D01*
X56400D01*
Y27400D01*
Y26067D01*
X52401Y22068D02*
Y23401D01*
X53068Y24068D01*
X55734D01*
X56400Y23401D01*
Y22068D01*
X55734Y21402D01*
X53068D01*
X52401Y22068D01*
X56400Y18070D02*
X52401D01*
X54401Y20069D01*
Y17403D01*
X53068Y16070D02*
X52401Y15404D01*
Y14071D01*
X53068Y13405D01*
X53734D01*
X54401Y14071D01*
X55067Y13405D01*
X55734D01*
X56400Y14071D01*
Y15404D01*
X55734Y16070D01*
X55067D01*
X54401Y15404D01*
X53734Y16070D01*
X53068D01*
X54401Y15404D02*
Y14071D01*
X42401Y27400D02*
Y26067D01*
Y26734D01*
X46400D01*
Y27400D01*
Y26067D01*
X42401Y22068D02*
Y23401D01*
X43068Y24068D01*
X45734D01*
X46400Y23401D01*
Y22068D01*
X45734Y21402D01*
X43068D01*
X42401Y22068D01*
X46400Y18070D02*
X42401D01*
X44401Y20069D01*
Y17403D01*
X42401Y16070D02*
Y13405D01*
X43068D01*
X45734Y16070D01*
X46400D01*
X33068Y24734D02*
X32401Y25401D01*
Y26734D01*
X33068Y27400D01*
X35734D01*
X36400Y26734D01*
Y25401D01*
X35734Y24734D01*
X34401D01*
Y26067D01*
X36400Y23401D02*
X32401D01*
X36400Y20735D01*
X32401D01*
Y19403D02*
X36400D01*
Y17403D01*
X35734Y16737D01*
X33068D01*
X32401Y17403D01*
Y19403D01*
X152401Y27400D02*
Y26067D01*
Y26734D01*
X156400D01*
Y27400D01*
Y26067D01*
X152401Y22068D02*
Y23401D01*
X153068Y24068D01*
X155734D01*
X156400Y23401D01*
Y22068D01*
X155734Y21402D01*
X153068D01*
X152401Y22068D01*
X153068Y20069D02*
X152401Y19403D01*
Y18070D01*
X153068Y17403D01*
X153734D01*
X154401Y18070D01*
Y18736D01*
Y18070D01*
X155067Y17403D01*
X155734D01*
X156400Y18070D01*
Y19403D01*
X155734Y20069D01*
X153068Y16070D02*
X152401Y15404D01*
Y14071D01*
X153068Y13405D01*
X153734D01*
X154401Y14071D01*
X155067Y13405D01*
X155734D01*
X156400Y14071D01*
Y15404D01*
X155734Y16070D01*
X155067D01*
X154401Y15404D01*
X153734Y16070D01*
X153068D01*
X154401Y15404D02*
Y14071D01*
X162401Y27400D02*
Y26067D01*
Y26734D01*
X166400D01*
Y27400D01*
Y26067D01*
X162401Y22068D02*
Y23401D01*
X163068Y24068D01*
X165734D01*
X166400Y23401D01*
Y22068D01*
X165734Y21402D01*
X163068D01*
X162401Y22068D01*
X163068Y20069D02*
X162401Y19403D01*
Y18070D01*
X163068Y17403D01*
X163734D01*
X164401Y18070D01*
Y18736D01*
Y18070D01*
X165067Y17403D01*
X165734D01*
X166400Y18070D01*
Y19403D01*
X165734Y20069D01*
Y16070D02*
X166400Y15404D01*
Y14071D01*
X165734Y13405D01*
X163068D01*
X162401Y14071D01*
Y15404D01*
X163068Y16070D01*
X163734D01*
X164401Y15404D01*
Y13405D01*
X172401Y27400D02*
Y26067D01*
Y26734D01*
X176400D01*
Y27400D01*
Y26067D01*
X172401Y22068D02*
Y23401D01*
X173068Y24068D01*
X175733D01*
X176400Y23401D01*
Y22068D01*
X175733Y21402D01*
X173068D01*
X172401Y22068D01*
X176400Y18070D02*
X172401D01*
X174401Y20069D01*
Y17403D01*
X173068Y16070D02*
X172401Y15404D01*
Y14071D01*
X173068Y13405D01*
X175733D01*
X176400Y14071D01*
Y15404D01*
X175733Y16070D01*
X173068D01*
X182401Y27400D02*
Y26067D01*
Y26734D01*
X186400D01*
Y27400D01*
Y26067D01*
X182401Y22068D02*
Y23401D01*
X183068Y24068D01*
X185733D01*
X186400Y23401D01*
Y22068D01*
X185733Y21402D01*
X183068D01*
X182401Y22068D01*
X186400Y18070D02*
X182401D01*
X184401Y20069D01*
Y17403D01*
X186400Y16070D02*
Y14737D01*
Y15404D01*
X182401D01*
X183068Y16070D01*
X142401Y27400D02*
Y26067D01*
Y26734D01*
X146400D01*
Y27400D01*
Y26067D01*
X142401Y22068D02*
Y23401D01*
X143068Y24068D01*
X145733D01*
X146400Y23401D01*
Y22068D01*
X145733Y21402D01*
X143068D01*
X142401Y22068D01*
X143068Y20069D02*
X142401Y19403D01*
Y18070D01*
X143068Y17403D01*
X143734D01*
X144401Y18070D01*
Y18736D01*
Y18070D01*
X145067Y17403D01*
X145733D01*
X146400Y18070D01*
Y19403D01*
X145733Y20069D01*
X142401Y16070D02*
Y13405D01*
X143068D01*
X145733Y16070D01*
X146400D01*
X132401Y27400D02*
Y26067D01*
Y26734D01*
X136400D01*
Y27400D01*
Y26067D01*
X132401Y22068D02*
Y23401D01*
X133068Y24068D01*
X135733D01*
X136400Y23401D01*
Y22068D01*
X135733Y21402D01*
X133068D01*
X132401Y22068D01*
X133068Y20069D02*
X132401Y19403D01*
Y18070D01*
X133068Y17403D01*
X133734D01*
X134401Y18070D01*
Y18736D01*
Y18070D01*
X135067Y17403D01*
X135733D01*
X136400Y18070D01*
Y19403D01*
X135733Y20069D01*
X132401Y13405D02*
X133068Y14737D01*
X134401Y16070D01*
X135733D01*
X136400Y15404D01*
Y14071D01*
X135733Y13405D01*
X135067D01*
X134401Y14071D01*
Y16070D01*
X122401Y27400D02*
Y26067D01*
Y26734D01*
X126400D01*
Y27400D01*
Y26067D01*
X122401Y22068D02*
Y23401D01*
X123068Y24068D01*
X125733D01*
X126400Y23401D01*
Y22068D01*
X125733Y21402D01*
X123068D01*
X122401Y22068D01*
X123068Y20069D02*
X122401Y19403D01*
Y18070D01*
X123068Y17403D01*
X123734D01*
X124401Y18070D01*
Y18736D01*
Y18070D01*
X125067Y17403D01*
X125733D01*
X126400Y18070D01*
Y19403D01*
X125733Y20069D01*
X122401Y13405D02*
Y16070D01*
X124401D01*
X123734Y14737D01*
Y14071D01*
X124401Y13405D01*
X125733D01*
X126400Y14071D01*
Y15404D01*
X125733Y16070D01*
X112401Y27400D02*
Y26067D01*
Y26734D01*
X116400D01*
Y27400D01*
Y26067D01*
X112401Y22068D02*
Y23401D01*
X113068Y24068D01*
X115734D01*
X116400Y23401D01*
Y22068D01*
X115734Y21402D01*
X113068D01*
X112401Y22068D01*
X113068Y20069D02*
X112401Y19403D01*
Y18070D01*
X113068Y17403D01*
X113734D01*
X114401Y18070D01*
Y18736D01*
Y18070D01*
X115067Y17403D01*
X115734D01*
X116400Y18070D01*
Y19403D01*
X115734Y20069D01*
X116400Y14071D02*
X112401D01*
X114401Y16070D01*
Y13405D01*
X192401Y27400D02*
Y26067D01*
Y26734D01*
X196400D01*
Y27400D01*
Y26067D01*
X192401Y22068D02*
Y23401D01*
X193068Y24068D01*
X195733D01*
X196400Y23401D01*
Y22068D01*
X195733Y21402D01*
X193068D01*
X192401Y22068D01*
X196400Y18070D02*
X192401D01*
X194401Y20069D01*
Y17403D01*
X196400Y13405D02*
Y16070D01*
X193734Y13405D01*
X193068D01*
X192401Y14071D01*
Y15404D01*
X193068Y16070D01*
X202401Y27400D02*
Y24734D01*
Y26067D01*
X206400D01*
X202401Y23401D02*
X206400Y20735D01*
X202401D02*
X206400Y23401D01*
X202401Y19403D02*
X206400D01*
Y17403D01*
X205734Y16737D01*
X203068D01*
X202401Y17403D01*
Y19403D01*
X216400Y27400D02*
X212401D01*
Y25401D01*
X213068Y24734D01*
X214401D01*
X215067Y25401D01*
Y27400D01*
Y26067D02*
X216400Y24734D01*
X212401Y23401D02*
X216400Y20735D01*
X212401D02*
X216400Y23401D01*
X212401Y19403D02*
X216400D01*
Y17403D01*
X215734Y16737D01*
X213068D01*
X212401Y17403D01*
Y19403D01*
X222401Y27400D02*
Y26067D01*
Y26734D01*
X226400D01*
Y27400D01*
Y26067D01*
X222401Y22068D02*
Y23401D01*
X223068Y24068D01*
X225734D01*
X226400Y23401D01*
Y22068D01*
X225734Y21402D01*
X223068D01*
X222401Y22068D01*
X226400Y18070D02*
X222401D01*
X224401Y20069D01*
Y17403D01*
X222401Y13405D02*
Y16070D01*
X224401D01*
X223734Y14737D01*
Y14071D01*
X224401Y13405D01*
X225734D01*
X226400Y14071D01*
Y15404D01*
X225734Y16070D01*
X263068Y27400D02*
X262401Y26734D01*
Y25401D01*
X263068Y24734D01*
X263734D01*
X264401Y25401D01*
Y26067D01*
Y25401D01*
X265067Y24734D01*
X265734D01*
X266400Y25401D01*
Y26734D01*
X265734Y27400D01*
X262401Y23401D02*
X265067D01*
X266400Y22068D01*
X265067Y20735D01*
X262401D01*
X263068Y19403D02*
X262401Y18736D01*
Y17403D01*
X263068Y16737D01*
X263734D01*
X264401Y17403D01*
Y18070D01*
Y17403D01*
X265067Y16737D01*
X265734D01*
X266400Y17403D01*
Y18736D01*
X265734Y19403D01*
X253068Y24734D02*
X252401Y25401D01*
Y26734D01*
X253068Y27400D01*
X255734D01*
X256400Y26734D01*
Y25401D01*
X255734Y24734D01*
X254401D01*
Y26067D01*
X256400Y23401D02*
X252401D01*
X256400Y20735D01*
X252401D01*
Y19403D02*
X256400D01*
Y17403D01*
X255734Y16737D01*
X253068D01*
X252401Y17403D01*
Y19403D01*
X242401Y24734D02*
Y27400D01*
X246400D01*
Y24734D01*
X244401Y27400D02*
Y26067D01*
X246400Y23401D02*
X242401D01*
X246400Y20735D01*
X242401D01*
X232401Y27400D02*
Y26067D01*
Y26734D01*
X236400D01*
Y27400D01*
Y26067D01*
X232401Y22068D02*
Y23401D01*
X233068Y24068D01*
X235734D01*
X236400Y23401D01*
Y22068D01*
X235734Y21402D01*
X233068D01*
X232401Y22068D01*
X236400Y18070D02*
X232401D01*
X234401Y20069D01*
Y17403D01*
X232401Y13405D02*
X233068Y14737D01*
X234401Y16070D01*
X235734D01*
X236400Y15404D01*
Y14071D01*
X235734Y13405D01*
X235067D01*
X234401Y14071D01*
Y16070D01*
X36400Y87400D02*
X32401D01*
X36400Y84734D01*
X32401D01*
X33068Y80735D02*
X32401Y81402D01*
Y82735D01*
X33068Y83401D01*
X35734D01*
X36400Y82735D01*
Y81402D01*
X35734Y80735D01*
X43068Y84734D02*
X42401Y85401D01*
Y86734D01*
X43068Y87400D01*
X45733D01*
X46400Y86734D01*
Y85401D01*
X45733Y84734D01*
X44401D01*
Y86067D01*
X46400Y83401D02*
X42401D01*
X46400Y80735D01*
X42401D01*
Y79403D02*
X46400D01*
Y77403D01*
X45733Y76737D01*
X43068D01*
X42401Y77403D01*
Y79403D01*
X51944Y84734D02*
Y87400D01*
X53943D01*
X53277Y86067D01*
Y85401D01*
X53943Y84734D01*
X55276D01*
X55943Y85401D01*
Y86734D01*
X55276Y87400D01*
X51944Y83401D02*
X54610D01*
X55943Y82068D01*
X54610Y80735D01*
X51944D01*
X62401Y87400D02*
Y86067D01*
Y86734D01*
X66400D01*
Y87400D01*
Y86067D01*
X62401Y82068D02*
Y83401D01*
X63068Y84068D01*
X65734D01*
X66400Y83401D01*
Y82068D01*
X65734Y81402D01*
X63068D01*
X62401Y82068D01*
X66400Y80069D02*
Y78736D01*
Y79403D01*
X62401D01*
X63068Y80069D01*
Y76737D02*
X62401Y76070D01*
Y74737D01*
X63068Y74071D01*
X63734D01*
X64401Y74737D01*
X65067Y74071D01*
X65734D01*
X66400Y74737D01*
Y76070D01*
X65734Y76737D01*
X65067D01*
X64401Y76070D01*
X63734Y76737D01*
X63068D01*
X64401Y76070D02*
Y74737D01*
X112901Y87400D02*
Y86067D01*
Y86734D01*
X116900D01*
Y87400D01*
Y86067D01*
X112901Y82068D02*
Y83401D01*
X113568Y84068D01*
X116234D01*
X116900Y83401D01*
Y82068D01*
X116234Y81402D01*
X113568D01*
X112901Y82068D01*
X116900Y80069D02*
Y78736D01*
Y79403D01*
X112901D01*
X113568Y80069D01*
Y76737D02*
X112901Y76070D01*
Y74737D01*
X113568Y74071D01*
X114234D01*
X114901Y74737D01*
Y75404D01*
Y74737D01*
X115567Y74071D01*
X116234D01*
X116900Y74737D01*
Y76070D01*
X116234Y76737D01*
X102901Y87400D02*
Y86067D01*
Y86734D01*
X106900D01*
Y87400D01*
Y86067D01*
X102901Y82068D02*
Y83401D01*
X103568Y84068D01*
X106234D01*
X106900Y83401D01*
Y82068D01*
X106234Y81402D01*
X103568D01*
X102901Y82068D01*
X106900Y80069D02*
Y78736D01*
Y79403D01*
X102901D01*
X103568Y80069D01*
X106900Y74737D02*
X102901D01*
X104901Y76737D01*
Y74071D01*
X92901Y87400D02*
Y86067D01*
Y86734D01*
X96900D01*
Y87400D01*
Y86067D01*
X92901Y82068D02*
Y83401D01*
X93568Y84068D01*
X96234D01*
X96900Y83401D01*
Y82068D01*
X96234Y81402D01*
X93568D01*
X92901Y82068D01*
X96900Y80069D02*
Y78736D01*
Y79403D01*
X92901D01*
X93568Y80069D01*
X92901Y74071D02*
Y76737D01*
X94901D01*
X94234Y75404D01*
Y74737D01*
X94901Y74071D01*
X96234D01*
X96900Y74737D01*
Y76070D01*
X96234Y76737D01*
X82901Y87400D02*
Y86067D01*
Y86734D01*
X86900D01*
Y87400D01*
Y86067D01*
X82901Y82068D02*
Y83401D01*
X83568Y84068D01*
X86234D01*
X86900Y83401D01*
Y82068D01*
X86234Y81402D01*
X83568D01*
X82901Y82068D01*
X86900Y80069D02*
Y78736D01*
Y79403D01*
X82901D01*
X83568Y80069D01*
X82901Y74071D02*
X83568Y75404D01*
X84901Y76737D01*
X86234D01*
X86900Y76070D01*
Y74737D01*
X86234Y74071D01*
X85567D01*
X84901Y74737D01*
Y76737D01*
X72901Y87400D02*
Y86067D01*
Y86734D01*
X76900D01*
Y87400D01*
Y86067D01*
X72901Y82068D02*
Y83401D01*
X73568Y84068D01*
X76234D01*
X76900Y83401D01*
Y82068D01*
X76234Y81402D01*
X73568D01*
X72901Y82068D01*
X76900Y80069D02*
Y78736D01*
Y79403D01*
X72901D01*
X73568Y80069D01*
X72901Y76737D02*
Y74071D01*
X73568D01*
X76234Y76737D01*
X76900D01*
X162901Y87400D02*
Y86067D01*
Y86734D01*
X166900D01*
Y87400D01*
Y86067D01*
X162901Y82068D02*
Y83401D01*
X163568Y84068D01*
X166234D01*
X166900Y83401D01*
Y82068D01*
X166234Y81402D01*
X163568D01*
X162901Y82068D01*
X163568Y80069D02*
X162901Y79403D01*
Y78070D01*
X163568Y77403D01*
X164234D01*
X164901Y78070D01*
X165567Y77403D01*
X166234D01*
X166900Y78070D01*
Y79403D01*
X166234Y80069D01*
X165567D01*
X164901Y79403D01*
X164234Y80069D01*
X163568D01*
X164901Y79403D02*
Y78070D01*
X152901Y87400D02*
Y86067D01*
Y86734D01*
X156900D01*
Y87400D01*
Y86067D01*
X152901Y82068D02*
Y83401D01*
X153568Y84068D01*
X156234D01*
X156900Y83401D01*
Y82068D01*
X156234Y81402D01*
X153568D01*
X152901Y82068D01*
X156234Y80069D02*
X156900Y79403D01*
Y78070D01*
X156234Y77403D01*
X153568D01*
X152901Y78070D01*
Y79403D01*
X153568Y80069D01*
X154234D01*
X154901Y79403D01*
Y77403D01*
X142901Y87400D02*
Y86067D01*
Y86734D01*
X146900D01*
Y87400D01*
Y86067D01*
X142901Y82068D02*
Y83401D01*
X143568Y84068D01*
X146233D01*
X146900Y83401D01*
Y82068D01*
X146233Y81402D01*
X143568D01*
X142901Y82068D01*
X146900Y80069D02*
Y78736D01*
Y79403D01*
X142901D01*
X143568Y80069D01*
Y76737D02*
X142901Y76070D01*
Y74737D01*
X143568Y74071D01*
X146233D01*
X146900Y74737D01*
Y76070D01*
X146233Y76737D01*
X143568D01*
X132901Y87400D02*
Y86067D01*
Y86734D01*
X136900D01*
Y87400D01*
Y86067D01*
X132901Y82068D02*
Y83401D01*
X133568Y84068D01*
X136233D01*
X136900Y83401D01*
Y82068D01*
X136233Y81402D01*
X133568D01*
X132901Y82068D01*
X136900Y80069D02*
Y78736D01*
Y79403D01*
X132901D01*
X133568Y80069D01*
X136900Y76737D02*
Y75404D01*
Y76070D01*
X132901D01*
X133568Y76737D01*
X122901Y87400D02*
Y86067D01*
Y86734D01*
X126900D01*
Y87400D01*
Y86067D01*
X122901Y82068D02*
Y83401D01*
X123568Y84068D01*
X126233D01*
X126900Y83401D01*
Y82068D01*
X126233Y81402D01*
X123568D01*
X122901Y82068D01*
X126900Y80069D02*
Y78736D01*
Y79403D01*
X122901D01*
X123568Y80069D01*
X126900Y74071D02*
Y76737D01*
X124234Y74071D01*
X123568D01*
X122901Y74737D01*
Y76070D01*
X123568Y76737D01*
X212901Y87400D02*
Y86067D01*
Y86734D01*
X216900D01*
Y87400D01*
Y86067D01*
X212901Y82068D02*
Y83401D01*
X213568Y84068D01*
X216234D01*
X216900Y83401D01*
Y82068D01*
X216234Y81402D01*
X213568D01*
X212901Y82068D01*
X213568Y80069D02*
X212901Y79403D01*
Y78070D01*
X213568Y77403D01*
X214234D01*
X214901Y78070D01*
Y78736D01*
Y78070D01*
X215567Y77403D01*
X216234D01*
X216900Y78070D01*
Y79403D01*
X216234Y80069D01*
X202401Y87400D02*
Y86067D01*
Y86734D01*
X206400D01*
Y87400D01*
Y86067D01*
X202401Y82068D02*
Y83401D01*
X203068Y84068D01*
X205734D01*
X206400Y83401D01*
Y82068D01*
X205734Y81402D01*
X203068D01*
X202401Y82068D01*
X206400Y78070D02*
X202401D01*
X204401Y80069D01*
Y77403D01*
X192401Y87400D02*
Y86067D01*
Y86734D01*
X196400D01*
Y87400D01*
Y86067D01*
X192401Y82068D02*
Y83401D01*
X193068Y84068D01*
X195733D01*
X196400Y83401D01*
Y82068D01*
X195733Y81402D01*
X193068D01*
X192401Y82068D01*
Y77403D02*
Y80069D01*
X194401D01*
X193734Y78736D01*
Y78070D01*
X194401Y77403D01*
X195733D01*
X196400Y78070D01*
Y79403D01*
X195733Y80069D01*
X182901Y87400D02*
Y86067D01*
Y86734D01*
X186900D01*
Y87400D01*
Y86067D01*
X182901Y82068D02*
Y83401D01*
X183568Y84068D01*
X186233D01*
X186900Y83401D01*
Y82068D01*
X186233Y81402D01*
X183568D01*
X182901Y82068D01*
Y77403D02*
X183568Y78736D01*
X184901Y80069D01*
X186233D01*
X186900Y79403D01*
Y78070D01*
X186233Y77403D01*
X185567D01*
X184901Y78070D01*
Y80069D01*
X172901Y87400D02*
Y86067D01*
Y86734D01*
X176900D01*
Y87400D01*
Y86067D01*
X172901Y82068D02*
Y83401D01*
X173568Y84068D01*
X176233D01*
X176900Y83401D01*
Y82068D01*
X176233Y81402D01*
X173568D01*
X172901Y82068D01*
Y80069D02*
Y77403D01*
X173568D01*
X176233Y80069D01*
X176900D01*
X222401Y87400D02*
Y86067D01*
Y86734D01*
X226400D01*
Y87400D01*
Y86067D01*
X222401Y82068D02*
Y83401D01*
X223068Y84068D01*
X225734D01*
X226400Y83401D01*
Y82068D01*
X225734Y81402D01*
X223068D01*
X222401Y82068D01*
X226400Y77403D02*
Y80069D01*
X223734Y77403D01*
X223068D01*
X222401Y78070D01*
Y79403D01*
X223068Y80069D01*
X232401Y87400D02*
Y86067D01*
Y86734D01*
X236400D01*
Y87400D01*
Y86067D01*
X232401Y82068D02*
Y83401D01*
X233068Y84068D01*
X235734D01*
X236400Y83401D01*
Y82068D01*
X235734Y81402D01*
X233068D01*
X232401Y82068D01*
X236400Y80069D02*
Y78736D01*
Y79403D01*
X232401D01*
X233068Y80069D01*
X242401Y87400D02*
Y86067D01*
Y86734D01*
X246400D01*
Y87400D01*
Y86067D01*
X242401Y82068D02*
Y83401D01*
X243068Y84068D01*
X245734D01*
X246400Y83401D01*
Y82068D01*
X245734Y81402D01*
X243068D01*
X242401Y82068D01*
X243068Y80069D02*
X242401Y79403D01*
Y78070D01*
X243068Y77403D01*
X245734D01*
X246400Y78070D01*
Y79403D01*
X245734Y80069D01*
X243068D01*
X253068Y87400D02*
X252401Y86734D01*
Y85401D01*
X253068Y84734D01*
X253734D01*
X254401Y85401D01*
Y86067D01*
Y85401D01*
X255067Y84734D01*
X255734D01*
X256400Y85401D01*
Y86734D01*
X255734Y87400D01*
X252401Y83401D02*
X255067D01*
X256400Y82068D01*
X255067Y80735D01*
X252401D01*
X253068Y79403D02*
X252401Y78736D01*
Y77403D01*
X253068Y76737D01*
X253734D01*
X254401Y77403D01*
Y78070D01*
Y77403D01*
X255067Y76737D01*
X255734D01*
X256400Y77403D01*
Y78736D01*
X255734Y79403D01*
X263068Y84734D02*
X262401Y85401D01*
Y86734D01*
X263068Y87400D01*
X265734D01*
X266400Y86734D01*
Y85401D01*
X265734Y84734D01*
X264401D01*
Y86067D01*
X266400Y83401D02*
X262401D01*
X266400Y80735D01*
X262401D01*
Y79403D02*
X266400D01*
Y77403D01*
X265734Y76737D01*
X263068D01*
X262401Y77403D01*
Y79403D01*
X262000Y-3100D02*
Y-1767D01*
Y-2434D01*
X265999D01*
X265332Y-3100D01*
X264100Y101600D02*
Y102933D01*
Y102266D01*
X268099D01*
X267432Y101600D01*
D58*
X269500Y500D02*
Y10500D01*
X29500D02*
X269500D01*
X29500Y500D02*
Y10500D01*
Y500D02*
X269500D01*
Y89500D02*
Y99500D01*
X29500D02*
X269500D01*
X29500Y89500D02*
Y99500D01*
Y89500D02*
X269500D01*
D80*
X246867Y47800D02*
X248200Y49133D01*
Y50466D01*
X246867Y51799D01*
X242202Y51132D02*
X242868Y51799D01*
X244201D01*
X244868Y51132D01*
Y48466D01*
X244201Y47800D01*
X242868D01*
X242202Y48466D01*
X240869Y47800D02*
X239536Y49133D01*
Y50466D01*
X240869Y51799D01*
X234871Y47800D02*
X237537D01*
X234871Y50466D01*
Y51132D01*
X235537Y51799D01*
X236870D01*
X237537Y51132D01*
X233538D02*
X232872Y51799D01*
X231539D01*
X230872Y51132D01*
Y48466D01*
X231539Y47800D01*
X232872D01*
X233538Y48466D01*
Y51132D01*
X226873Y47800D02*
X229539D01*
X226873Y50466D01*
Y51132D01*
X227540Y51799D01*
X228873D01*
X229539Y51132D01*
X222875Y51799D02*
X225541D01*
Y49799D01*
X224208Y50466D01*
X223541D01*
X222875Y49799D01*
Y48466D01*
X223541Y47800D01*
X224874D01*
X225541Y48466D01*
X221542Y49799D02*
X218876D01*
X217543Y51799D02*
Y47800D01*
Y49799D01*
X214877D01*
Y51799D01*
Y47800D01*
X210879Y51799D02*
X213545D01*
Y47800D01*
X210879D01*
X213545Y49799D02*
X212212D01*
X209546Y47800D02*
Y51799D01*
X206880Y47800D01*
Y51799D01*
X205547Y47800D02*
Y51799D01*
X203548D01*
X202881Y51132D01*
Y49799D01*
X203548Y49133D01*
X205547D01*
X204214D02*
X202881Y47800D01*
X201548Y51799D02*
X200216D01*
X200882D01*
Y47800D01*
X201548D01*
X200216D01*
X195550Y48466D02*
Y51132D01*
X196217Y51799D01*
X197550D01*
X198216Y51132D01*
Y48466D01*
X197550Y47800D01*
X196217D01*
X196883Y49133D02*
X195550Y47800D01*
X196217D02*
X195550Y48466D01*
X194217Y51799D02*
Y48466D01*
X193551Y47800D01*
X192218D01*
X191552Y48466D01*
Y51799D01*
X187553D02*
X190219D01*
Y47800D01*
X187553D01*
X190219Y49799D02*
X188886D01*
X182221Y51799D02*
Y47800D01*
X180222D01*
X179555Y48466D01*
Y49133D01*
X180222Y49799D01*
X182221D01*
X180222D01*
X179555Y50466D01*
Y51132D01*
X180222Y51799D01*
X182221D01*
X175557D02*
X178223D01*
Y47800D01*
X175557D01*
X178223Y49799D02*
X176890D01*
X174224Y47800D02*
Y51799D01*
X172224D01*
X171558Y51132D01*
Y49799D01*
X172224Y49133D01*
X174224D01*
X172891D02*
X171558Y47800D01*
X170225D02*
Y51799D01*
X167559Y47800D01*
Y51799D01*
X166226Y47800D02*
Y50466D01*
X164893Y51799D01*
X163561Y50466D01*
Y47800D01*
Y49799D01*
X166226D01*
X162228Y47800D02*
Y51799D01*
X160228D01*
X159562Y51132D01*
Y49799D01*
X160228Y49133D01*
X162228D01*
X160895D02*
X159562Y47800D01*
X158229Y51799D02*
Y47800D01*
X156230D01*
X155563Y48466D01*
Y51132D01*
X156230Y51799D01*
X158229D01*
X151565D02*
X154230D01*
Y47800D01*
X151565D01*
X154230Y49799D02*
X152897D01*
X147566Y51132D02*
X148232Y51799D01*
X149565D01*
X150232Y51132D01*
Y50466D01*
X149565Y49799D01*
X148232D01*
X147566Y49133D01*
Y48466D01*
X148232Y47800D01*
X149565D01*
X150232Y48466D01*
X248200Y46299D02*
Y42300D01*
X245534D01*
X244201D02*
Y44966D01*
X242868Y46299D01*
X241535Y44966D01*
Y42300D01*
Y44299D01*
X244201D01*
X240203Y46299D02*
Y42300D01*
X238203D01*
X237537Y42966D01*
Y43633D01*
X238203Y44299D01*
X240203D01*
X238203D01*
X237537Y44966D01*
Y45632D01*
X238203Y46299D01*
X240203D01*
X236204D02*
X233538D01*
X234871D01*
Y42300D01*
X229539Y46299D02*
X232205D01*
Y42300D01*
X229539D01*
X232205Y44299D02*
X230872D01*
X228206Y46299D02*
Y42300D01*
X225541D01*
X221542Y46299D02*
X224208D01*
Y42300D01*
X221542D01*
X224208Y44299D02*
X222875D01*
X217543Y45632D02*
X218210Y46299D01*
X219543D01*
X220209Y45632D01*
Y42966D01*
X219543Y42300D01*
X218210D01*
X217543Y42966D01*
X214211Y46299D02*
X215544D01*
X216210Y45632D01*
Y42966D01*
X215544Y42300D01*
X214211D01*
X213545Y42966D01*
Y45632D01*
X214211Y46299D01*
X212212Y42300D02*
Y46299D01*
X210879Y44966D01*
X209546Y46299D01*
Y42300D01*
X208213Y44299D02*
X205547D01*
X204214Y46299D02*
Y42966D01*
X203548Y42300D01*
X202215D01*
X201548Y42966D01*
Y46299D01*
X200216Y42300D02*
Y46299D01*
X197550Y42300D01*
Y46299D01*
X196217D02*
Y42300D01*
X194217D01*
X193551Y42966D01*
Y43633D01*
X194217Y44299D01*
X196217D01*
X194217D01*
X193551Y44966D01*
Y45632D01*
X194217Y46299D01*
X196217D01*
M02*
