G04*
G04 #@! TF.GenerationSoftware,Altium Limited,Altium Designer,25.8.1 (18)*
G04*
G04 Layer_Physical_Order=3*
G04 Layer_Color=32768*
%FSLAX25Y25*%
%MOIN*%
G70*
G04*
G04 #@! TF.SameCoordinates,507DAA70-145D-422E-80CD-167F3C6471A6*
G04*
G04*
G04 #@! TF.FilePolarity,Negative*
G04*
G01*
G75*
%ADD52C,0.06800*%
%ADD74C,0.04000*%
G04:AMPARAMS|DCode=75|XSize=100mil|YSize=100mil|CornerRadius=0mil|HoleSize=0mil|Usage=FLASHONLY|Rotation=0.000|XOffset=0mil|YOffset=0mil|HoleType=Round|Shape=Relief|Width=20mil|Gap=10mil|Entries=4|*
%AMTHD75*
7,0,0,0.10000,0.08000,0.02000,45*
%
%ADD75THD75*%
%AMTHOVALD76*
21,1,0.03150,0.08362,0,0,360.0*
1,1,0.08362,-0.01575,0.00000*
1,1,0.08362,0.01575,0.00000*
21,0,0.03150,0.06362,0,0,360.0*
1,0,0.06362,-0.01575,0.00000*
1,0,0.06362,0.01575,0.00000*
4,0,4,-0.00868,-0.00707,-0.03824,-0.03664,-0.05238,-0.02249,-0.02282,0.00707,-0.00868,-0.00707,0.0*
4,0,4,0.02282,-0.00707,0.05238,0.02249,0.03824,0.03664,0.00868,0.00707,0.02282,-0.00707,0.0*
4,0,4,-0.02282,-0.00707,-0.05238,0.02249,-0.03824,0.03664,-0.00868,0.00707,-0.02282,-0.00707,0.0*
4,0,4,0.00868,-0.00707,0.03824,-0.03664,0.05238,-0.02249,0.02282,0.00707,0.00868,-0.00707,0.0*
%
%ADD76THOVALD76*%

%AMTHOVALD77*
21,1,0.04724,0.08362,0,0,360.0*
1,1,0.08362,-0.02362,0.00000*
1,1,0.08362,0.02362,0.00000*
21,0,0.04724,0.06362,0,0,360.0*
1,0,0.06362,-0.02362,0.00000*
1,0,0.06362,0.02362,0.00000*
4,0,4,-0.01655,-0.00707,-0.04612,-0.03664,-0.06026,-0.02249,-0.03069,0.00707,-0.01655,-0.00707,0.0*
4,0,4,0.03069,-0.00707,0.06026,0.02249,0.04612,0.03664,0.01655,0.00707,0.03069,-0.00707,0.0*
4,0,4,-0.03069,-0.00707,-0.06026,0.02249,-0.04612,0.03664,-0.01655,0.00707,-0.03069,-0.00707,0.0*
4,0,4,0.01655,-0.00707,0.04612,-0.03664,0.06026,-0.02249,0.03069,0.00707,0.01655,-0.00707,0.0*
%
%ADD77THOVALD77*%

%ADD78C,0.08000*%
%ADD79C,0.05200*%
D52*
X142500Y50000D02*
D03*
X137500D02*
D03*
X35500Y45000D02*
D03*
Y50000D02*
D03*
Y55000D02*
D03*
D74*
X0Y0D02*
Y100000D01*
X270000D01*
Y0D02*
Y100000D01*
X0Y0D02*
X270000D01*
D75*
X264500Y94500D02*
D03*
X254500Y5500D02*
D03*
X44500Y94500D02*
D03*
X34500Y5500D02*
D03*
D76*
X22521Y95008D02*
D03*
Y60992D02*
D03*
Y39508D02*
D03*
Y5492D02*
D03*
D77*
X6772Y95008D02*
D03*
Y60992D02*
D03*
Y39508D02*
D03*
Y5492D02*
D03*
D78*
X64500Y5500D02*
D03*
X74500D02*
D03*
X234500Y94500D02*
D03*
X204500D02*
D03*
X134500D02*
D03*
X194500Y5500D02*
D03*
X104500D02*
D03*
X64500Y94500D02*
D03*
X164500D02*
D03*
Y5500D02*
D03*
X134500D02*
D03*
X54500D02*
D03*
X194500Y94500D02*
D03*
X94500D02*
D03*
X224500Y5500D02*
D03*
X114500D02*
D03*
X244500D02*
D03*
X224500Y94500D02*
D03*
X154500D02*
D03*
X124500D02*
D03*
X174500Y5500D02*
D03*
X84500D02*
D03*
X254500Y94500D02*
D03*
X264500Y5500D02*
D03*
X184500Y94500D02*
D03*
X84500D02*
D03*
X234500Y5500D02*
D03*
X144500D02*
D03*
X214500Y94500D02*
D03*
X114500D02*
D03*
X214500Y5500D02*
D03*
X184500D02*
D03*
X144500Y94500D02*
D03*
X74500D02*
D03*
X154500Y5500D02*
D03*
X94500D02*
D03*
X174500Y94500D02*
D03*
X104500D02*
D03*
X204500Y5500D02*
D03*
X124500D02*
D03*
X44500D02*
D03*
X54500Y94500D02*
D03*
X244500D02*
D03*
X34500D02*
D03*
D79*
X76800Y87580D02*
D03*
X182600Y63300D02*
D03*
X175000Y62500D02*
D03*
X95000Y83500D02*
D03*
X78100Y31000D02*
D03*
X81300D02*
D03*
X192400Y51100D02*
D03*
Y44300D02*
D03*
X249543Y73043D02*
D03*
X239504Y67604D02*
D03*
X216200Y72200D02*
D03*
X239504Y26957D02*
D03*
X196500Y30000D02*
D03*
X175500Y53500D02*
D03*
X226118Y67604D02*
D03*
X229465Y32396D02*
D03*
X219425Y26957D02*
D03*
X188000Y38500D02*
D03*
X236157Y73043D02*
D03*
X249543Y32396D02*
D03*
X201000Y30000D02*
D03*
X147500Y51500D02*
D03*
X246197Y67604D02*
D03*
X166000Y79000D02*
D03*
X222772Y73043D02*
D03*
X195500Y73000D02*
D03*
X232811Y26957D02*
D03*
X194000Y38500D02*
D03*
X80000Y49500D02*
D03*
X250500Y89500D02*
D03*
X254500D02*
D03*
X181000Y74000D02*
D03*
X232811Y67604D02*
D03*
X222772Y32396D02*
D03*
X242850Y73043D02*
D03*
X189500Y70000D02*
D03*
X246197Y26957D02*
D03*
X236157Y32396D02*
D03*
X219425Y67604D02*
D03*
X170500Y59500D02*
D03*
X226118Y26957D02*
D03*
X200000Y38500D02*
D03*
X229465Y73043D02*
D03*
X192232Y66732D02*
D03*
X242850Y32396D02*
D03*
X216079D02*
D03*
X182400Y38700D02*
D03*
X205000Y44500D02*
D03*
X205100Y51300D02*
D03*
X143500Y62000D02*
D03*
X56000Y15000D02*
D03*
X53000D02*
D03*
X49500D02*
D03*
X82500Y85000D02*
D03*
X62000Y56000D02*
D03*
X57500Y47500D02*
D03*
X154000Y59500D02*
D03*
X87500Y71500D02*
D03*
X36933Y77220D02*
D03*
X49500Y76000D02*
D03*
Y81000D02*
D03*
X32000Y79779D02*
D03*
X41500Y22399D02*
D03*
Y19198D02*
D03*
M02*
