M48
;Layer_Color=9474304
;FILE_FORMAT=2:5
INCH,LZ
;TYPE=PLATED
T01F00S00C0.01200
T03F00S00C0.02800
T04F00S00C0.04000
%
T01
X0030216Y0011079
X0039Y00155
X00415Y0019198
Y0022399
X0039Y0025
X00495Y0023
X0049Y002
X00495Y0015
X0053
X0056
X0057Y0029
X00605
X00535
X00495Y00335
X00575Y00475
X0062Y0056
X0046268Y00625
X0045828Y0071672
X005Y00705
X00495Y0076
Y0081
X00455Y00825
X0047Y00895
X0037Y0086
X0036933Y007722
X00365Y007272
X0032Y0079779
X0028451Y0090549
X00285Y0063
X0029Y00595
X00315Y0043
X00295Y0039
X00675Y0054
X00795Y00555
X008Y0059
Y00495
X00813Y0031
X00781
X0076Y00285
X00835
X0097Y00325
X01005
X0104
X01075
X0111
Y0039
X01075
X0104
X01005
X0097
Y00455
X01005
X0104
X01075
X0111
X0124Y00405
X0157Y00415
X01475Y00515
X01435Y0062
X0154Y00595
X01635Y0062
X01705Y00595
X0175Y00625
X01794Y00618
X01826Y00633
X0181Y0074
X01895Y007
X0192232Y0066732
X01955Y0073
X02056Y00747
X02162Y00722
X0219425Y0067604
X02084Y00515
X02051Y00513
X0205Y00445
X02084Y00451
X02Y00385
X0194
X0188
X01824Y00387
X01885Y0044
X01924Y00443
Y00511
X01885Y00505
X01755Y00535
X0166Y0079
X015565Y0078758
X01395Y0077
X0095328Y0076672
X0095Y00835
X00825Y0085
X0077Y00885
X007Y0088
X0069Y0079
X0073
Y0075
X0069
X00725Y00655
X00875Y00715
X00935Y00615
X0094Y00565
X01624Y00139
X01695Y0019983
X01965Y003
X0201
X02074Y00222
X0219425Y0026957
X0216079Y0032396
X0222772
X0229465
X0236157
X024285
X0249543
X0252787Y0026863
X0256134
X0262641Y0026472
Y0029819
Y0033165
Y0036512
Y0039858
Y0043205
Y0046551
Y0049898
Y0053244
Y005659
Y0059937
Y0063283
Y006663
Y0069976
Y0073323
X0259685Y0073137
X026Y0082
X02545Y00895
X02505
X0244Y00889
X024285Y0073043
X0249543
X0246197Y0067604
X0239504
Y00615
X02428Y00533
Y00468
X02362
X02363Y00532
X0228004Y005
Y0056496
Y0043504
X0239504Y00385
Y0026957
X0232811
X0226118
X0246197
X0251004Y0043504
Y005
Y0056496
X0232811Y0067604
X0226118
X0222772Y0073043
X0229465
X0236157
X02685Y0017
T03
X00355Y0045
Y005
Y0055
X01375Y005
X01425
T04
X00345Y00055
X00445
X00545
X00645
Y00945
X00545
X00445
X00345
X00745
X00845
X00945
X01045
X01145
X01245
X01345
X01445
X01545
X01645
X01745
X01845
X01945
X02045
X02145
Y00055
X02045
X01945
X01845
X01745
X01645
X01545
X01445
X01345
X01245
X01145
X01045
X00945
X00845
X00745
X02245
X02345
X02445
X02545
X02645
Y00945
X02545
X02445
X02345
X02245
M30
